<mxfile host="app.diagrams.net" agent="Mozilla/5.0 (Windows NT 10.0; Win64; x64) AppleWebKit/537.36 (KHTML, like Gecko) Chrome/129.0.0.0 Safari/537.36" version="24.7.16">
  <diagram name="Page-1" id="gqa8WlyomSCKW7BrmNZH">
    <mxGraphModel dx="1366" dy="703" grid="1" gridSize="10" guides="1" tooltips="1" connect="1" arrows="1" fold="1" page="1" pageScale="1" pageWidth="850" pageHeight="1100" math="0" shadow="0">
      <root>
        <mxCell id="0" />
        <mxCell id="1" parent="0" />
        <mxCell id="vubgyZdkI0JmJ5_AQgjt-3" value="" style="whiteSpace=wrap;html=1;rounded=1;arcSize=4;imageAspect=1;fillColor=#f5f5f5;strokeColor=#0078d4;fontColor=#333333;strokeWidth=2;" vertex="1" parent="1">
          <mxGeometry x="80" y="70" width="140" height="200" as="geometry" />
        </mxCell>
        <mxCell id="vubgyZdkI0JmJ5_AQgjt-2" value="" style="shape=image;verticalLabelPosition=bottom;labelBackgroundColor=default;verticalAlign=top;aspect=fixed;imageAspect=0;image=data:image/svg+xml,PHN2ZyB4bWxucz0iaHR0cDovL3d3dy53My5vcmcvMjAwMC9zdmciIHZpZXdCb3g9IjAgMCAxOCAxOCI+PGRlZnM+PGxpbmVhckdyYWRpZW50IGdyYWRpZW50VW5pdHM9InVzZXJTcGFjZU9uVXNlIiB5Mj0iNS43ODgiIHgyPSI5IiB5MT0iMTUuODM0IiB4MT0iOSIgaWQ9ImEiPjxzdG9wIHN0b3AtY29sb3I9IiMwMDc4ZDQiIG9mZnNldD0iMCIvPjxzdG9wIHN0b3AtY29sb3I9IiM0MDkzZTYiIG9mZnNldD0iLjUwMiIvPjxzdG9wIHN0b3AtY29sb3I9IiM1ZWEwZWYiIG9mZnNldD0iLjc3NSIvPjwvbGluZWFyR3JhZGllbnQ+PGxpbmVhckdyYWRpZW50IGdyYWRpZW50VW5pdHM9InVzZXJTcGFjZU9uVXNlIiBncmFkaWVudFRyYW5zZm9ybT0icm90YXRlKDQ0LjkxOSA1LjMzMSAxMS42NDcpIiB5Mj0iMTEuNjE0IiB4Mj0iNi45NzUiIHkxPSIxMS42MTQiIHgxPSIzLjc1NCIgaWQ9ImIiPjxzdG9wIHN0b3AtY29sb3I9IiM1ZWEwZWYiIG9mZnNldD0iMCIvPjxzdG9wIHN0b3AtY29sb3I9IiM5ZmM2ZjUiIG9mZnNldD0iLjM3MiIvPjxzdG9wIHN0b3AtY29sb3I9IiNlNGVmZmMiIG9mZnNldD0iLjgiLz48c3RvcCBzdG9wLWNvbG9yPSIjZmZmIiBvZmZzZXQ9IjEiLz48L2xpbmVhckdyYWRpZW50PjxsaW5lYXJHcmFkaWVudCBncmFkaWVudFVuaXRzPSJ1c2VyU3BhY2VPblVzZSIgZ3JhZGllbnRUcmFuc2Zvcm09InJvdGF0ZSgxMzUuMDgxIDEyLjQ3MyAxMS42NDYpIiB5Mj0iMTEuNjE0IiB4Mj0iMTQuMDUiIHkxPSIxMS42MTQiIHgxPSIxMC44MyIgaWQ9ImMiPjxzdG9wIHN0b3AtY29sb3I9IiNmZmYiIG9mZnNldD0iMCIvPjxzdG9wIHN0b3AtY29sb3I9IiNlNGVmZmMiIG9mZnNldD0iLjIiLz48c3RvcCBzdG9wLWNvbG9yPSIjOWZjNmY1IiBvZmZzZXQ9Ii42MjgiLz48c3RvcCBzdG9wLWNvbG9yPSIjNWVhMGVmIiBvZmZzZXQ9IjEiLz48L2xpbmVhckdyYWRpZW50PjwvZGVmcz48cGF0aCBmaWxsPSJ1cmwoI2EpIiBkPSJNLjUgNS43ODhoMTd2OS40NzhhLjU2OC41NjggMCAwMS0uNTY4LjU2OEgxLjA2OGEuNTY4LjU2OCAwIDAxLS41NjgtLjU2OFY1Ljc4OHoiLz48cGF0aCBmaWxsPSIjMDA3OGQ0IiBkPSJNMS4wNzEgMi4xNjZoMTUuODU4YS41NjguNTY4IDAgMDEuNTY4LjU2OHYzLjA1NEguNVYyLjczNGEuNTY4LjU2OCAwIDAxLjU3MS0uNTY4eiIvPjxwYXRoIGZpbGw9InVybCgjYikiIHRyYW5zZm9ybT0icm90YXRlKC00NC45MTkgNS4zMzMgMTEuNjQ2KSIgZD0iTTUuMjQ0IDkuNjMyaC40OVYxMy41YS4xNTcuMTU3IDAgMDEtLjE1Ny4xNTdoLS40OWEuMTU3LjE1NyAwIDAxLS4xNTctLjE1N1Y5Ljk0NWEuMzE0LjMxNCAwIDAxLjMxNC0uMzE0eiIvPjxwYXRoIGZpbGw9IiNmMmYyZjIiIGQ9Ik00LjE5IDExLjA3NGwtLjM0Ny0uMzQ3YS4zMTQuMzE0IDAgMDEwLS40NDRsMi41NjItMi41NTRhLjE1Ny4xNTcgMCAwMS4yMjIgMGwuMzQ2LjM0N2EuMTU3LjE1NyAwIDAxMCAuMjIybC0yLjc4NCAyLjc3NnoiLz48cGF0aCBmaWxsPSJ1cmwoI2MpIiB0cmFuc2Zvcm09InJvdGF0ZSgtMTM1LjA4MSAxMi40NzMgMTEuNjQ3KSIgZD0iTTEyLjIyOCA5LjYzMmguNDlhLjE1Ny4xNTcgMCAwMS4xNTcuMTU3djMuODczaC0uNDlhLjMxNC4zMTQgMCAwMS0uMzE0LS4zMTR2LTMuNTZhLjE1Ny4xNTcgMCAwMS4xNTctLjE1N3oiLz48cGF0aCBmaWxsPSIjZjJmMmYyIiBkPSJNMTAuODI0IDguMDc4bC4zNDYtLjM0N2EuMTU3LjE1NyAwIDAxLjIyMiAwbDIuNTYgMi41NTNhLjMxNC4zMTQgMCAwMS4wMDIuNDQ0bC0uMzQ2LjM0Ny0yLjc4Mi0yLjc3M2EuMTU3LjE1NyAwIDAxLS4wMDItLjIyNHoiLz48cmVjdCBmaWxsPSIjZjJmMmYyIiB0cmFuc2Zvcm09InJvdGF0ZSgxNy43NTIgOC45NSAxMC40MTYpIiByeD0iLjExMiIgaGVpZ2h0PSI3LjYzNCIgd2lkdGg9Ii44MDYiIHk9IjYuNTk4IiB4PSI4LjU0NyIvPjwvc3ZnPg==;" vertex="1" parent="1">
          <mxGeometry x="120" y="140" width="60" height="60" as="geometry" />
        </mxCell>
        <mxCell id="vubgyZdkI0JmJ5_AQgjt-4" value="&lt;b&gt;&lt;font face=&quot;Helvetica&quot; color=&quot;#0051a3&quot; style=&quot;font-size: 16px;&quot;&gt;Local&lt;/font&gt;&lt;/b&gt;" style="whiteSpace=wrap;html=1;rounded=1;arcSize=4;imageAspect=1;fillColor=#dae8fc;strokeColor=#6c8ebf;strokeWidth=2;fontColor=#004C99;" vertex="1" parent="1">
          <mxGeometry x="80" y="30" width="140" height="40" as="geometry" />
        </mxCell>
        <mxCell id="vubgyZdkI0JmJ5_AQgjt-5" value="" style="whiteSpace=wrap;html=1;rounded=1;arcSize=4;imageAspect=1;fillColor=#f5f5f5;strokeColor=#0078d4;fontColor=#333333;strokeWidth=2;" vertex="1" parent="1">
          <mxGeometry x="280" y="70" width="140" height="200" as="geometry" />
        </mxCell>
        <mxCell id="vubgyZdkI0JmJ5_AQgjt-6" value="&lt;b&gt;&lt;font face=&quot;Helvetica&quot; color=&quot;#0051a3&quot; style=&quot;font-size: 16px;&quot;&gt;GitHub&lt;/font&gt;&lt;/b&gt;" style="whiteSpace=wrap;html=1;rounded=1;arcSize=4;imageAspect=1;fillColor=#dae8fc;strokeColor=#6c8ebf;strokeWidth=2;fontColor=#004C99;" vertex="1" parent="1">
          <mxGeometry x="280" y="30" width="140" height="40" as="geometry" />
        </mxCell>
        <mxCell id="vubgyZdkI0JmJ5_AQgjt-7" value="" style="whiteSpace=wrap;html=1;rounded=1;arcSize=4;imageAspect=1;fillColor=#f5f5f5;strokeColor=#0078d4;fontColor=#333333;strokeWidth=2;" vertex="1" parent="1">
          <mxGeometry x="470" y="70" width="260" height="200" as="geometry" />
        </mxCell>
        <mxCell id="vubgyZdkI0JmJ5_AQgjt-8" value="&lt;b&gt;&lt;font face=&quot;Helvetica&quot; color=&quot;#0051a3&quot; style=&quot;font-size: 16px;&quot;&gt;Azure&lt;/font&gt;&lt;/b&gt;" style="whiteSpace=wrap;html=1;rounded=1;arcSize=4;imageAspect=1;fillColor=#dae8fc;strokeColor=#6c8ebf;strokeWidth=2;fontColor=#004C99;" vertex="1" parent="1">
          <mxGeometry x="470" y="30" width="260" height="40" as="geometry" />
        </mxCell>
        <mxCell id="vubgyZdkI0JmJ5_AQgjt-9" value="" style="shape=image;verticalLabelPosition=bottom;labelBackgroundColor=default;verticalAlign=top;aspect=fixed;imageAspect=0;image=data:image/png,iVBORw0KGgoAAAANSUhEUgAADwAAAAhwBAMAAABikNZBAAAAD1BMVEVHcEwAAAAAAAAAAAAAAADTrAj/AAAABHRSTlMAt2YunPNP4QAAIABJREFUeNrs3VtOG0EQBdBgb4CBWcDMwALGNhsw9P7XFASJeCgkxLKrX+d8+tNu6aqqq9o/fgAAAAAAAAAAAAAAAAAAAAAAAAAAAAAAAAAAAAAAAAAAAAAAAAAAAAAAAAAAAAAAAAAAAAAAAAAAAAAAAAAAAAC0ZXvYL8vw6pjeGV8/u1mWw2H1PQHAmYJ3mZ/zNX3TSxQLYgA4PXr3zxXvmE5yHIblTgwDwH9m73xq9H6M4RspDADfcp7s/ZjCvlUA+Hv4posQwgDwZ4dLhe9bCB98ywDwznZ/3rbz1+3ou9W3DQAv6bsMKdCwyGAApO8cmr6/m9EyGADpm4MMBqDX9N1nS99fGWwwGoDuBE1dyWAAeCt+5xLS93UuWisagG6K31QUZTAAHRS/uzEVZ1j8MAA0Hb9zgfGrEw1A2w5DKtgw+YUAaNC+6Ph1GQxAm/E7pgocRTAA4lcEA0AX8SuCARC/IhgA+olfEQxA9TZDqpSlJACqtZ1TxTzNAYD4FcEA8C27MVXveOt3BKAq+wbi1zQWAJWpv/usDw1AfeYxNUQfGoAqbJqK35cInvyqABSupe6zPjQAtdiPqUmGsQAoufwdUrMGRTAAhdqNqWGGsQBQ/iqCAaCD8lcRDECZ5e+cumAcGoCS7MfUCePQAJRjTh258XsDUITNmLriYSwASrBL3TGLBUBu7S8fWUgCoDy9tZ+1oQEowZy6ZRYLgFy2Y+qYNjQAeWy6zl9taADy2KXumYYGINwsf10EAxBtO0rflzb06iwAEGcjf10EAxDO9a+LYADiuf51EQxAONe/nz2uTgUAl+b61ygWAPLXKBYAPTB+ZRQLAPkrgQHogfFnw9AAhDP+bBgaAPlrGBqAHhh/NgwNgPyVwADIXyQwAJdwJVqtIwEQzvqvBAZA/kpgAOQvEhiAS/D8lUexAJC/EhgA+YsEBkD+SmAA5K8EBgD5K4EBkL8SGADkrwQGQP5KYADkLxIYgEjen/QqJQDyVwIDIH+RwADIXwkMgPxFAgNwmiuZeV6TMwXAv20kpgQGID5/R4EpgQGItpW/F3BcnSwA5K8EBkD+SmAAuncvKS/l0ekC4Cv+gOGC/DEDAF/wAIcHOQCQvxIYgB54AMs6MADxPMARMAotgQH4xAKSZSQAMpC/MQnspAHwngVg68AAxDMAbRQagHgGoANdO28AvPIPwJaRAIhnANooNAAZyF+j0ADEMwBtFBqAeAagjUIDEM8AtFFoAOJ5ATrTNfDk7AH0zAC0UWgAMjCAZRALgHgGsAxiARDPC1hexAIgngtg18AAZCB/vYgFQDwXwK6BAYjnBQ7vcQAQzwscBrEAyED+ugYGIJ4XOLzHAUA8F8CugQGI5wUO18AAZOAC2DUwAPFsABflyYkE6IMLYNfAAMTzBHRxTejVqQTogPx1DQxAPBfABfIoNEDzbCDZRQIgngtg18AAZHAv68p042wCtMwGkl0kAOJpQBdsdT4BmqUBXTD/iwTQLBtIdpEAiGcDqfBJ6MkZBWiSC2APYgEQTwNaExqAeBrQFZicU4DmaEBrQgMQTwO6Ck9OKkBbNKA1oQHIQANaExqAeBrQJqEBiKcBrQkNQAYa0JrQAMTTgNaEBiCeBrQmNAAZaEBrQgMQTwNaExqAeFt5Vl8JPDm3ANXTgK7Qo3MLULsraVajaycXoG5bBXCdTejV2QWo2r0s04QGIJwGtCY0ABloQFsGBiCeFeCKPTm/ALXyBmXVJicYoFIa0JrQAMQzgWUOC4B4VoAtAwOQgRVgy8AAxDOBZQ4LgAw0oM1hARDPBJY5LADimcBqxOosA1TFBFYjvIcFUBUTWOawAMhAA9ocFgDxTGCZwwIgngmspkrg1YkGqMSD1DKHBUA4E1jmsADIwApSYzwJDVAFE1jmsADIwASWVSQAFMAogQF6YAXJKhIAGVhBsooEQDwrSFaRAMjACpJVJAAUwCiBAbpgAssqEgDxrCBZRQJAAYwSGKALOynVslsnHKBM3uBovARenXGAIj3IqLZ5jQOgzAJYQrVOCQxQonsB1TqvcQAUyBscHZiccwAFMEpgABTASmAAcrCC1McqkpMOUBaPUHbi2lkHUACjBAZQAKMEBkABjBIYQAGMEhgABTBKYAAFMEpgAE7ibwiVwABksJNJfbl15gEUwGQogdef7N1rdtrKEgZQ22QAyDAADAxANgwATpj/mK7jJDd+YevRqpbUe/+86651FMmtT1WqFv7qARTAKIEBFMAogQFQAKMEBlAAowQGQAGMEhhAAYwSGAAFMEpgAAUwSmAAFMAogQHyUwCXWwL76wfIx88gFWzp7x9AAYwSGEABjBIYAAUwSmAABTBKYAAUwCiBARTAKIEBUACjBAZQAKMEBkABjBIYIJM76cPlsrESAILthQ+Xy39WAoACGCUwwOwdRQ9KYIBwC8nD7zGs2moAUAAT76fVABBYANuDhBIYIN6j3OGvpfUAEEYBzL8S2HoAiOIrlCiBARTAKIEBFMAogQEYxl7k8JqPcQCE8BVK3tlYFQABjgKHt3yMAyCAr1DyQW1dACiAUQIDzJE9SNiJBBDPHiTsRAJQAKMEBlAAowQGYBh7UcNnfIwDYFD2IGEnEkAG9iBhJxJAhgLYCBbXxrCUwADDMYKFMSyADBTA2IkEoABGCQxQBHuQsBMJIJ49SNiJBJCBPUjYiQSQgREsjGEBxDOChTEsAAUwSmCAItzJF76zsU4AkjOChTEsgHj2IGEnEkAGRrAwhgWQgREsjGEBxDOChTEsgAz2ooUmfBAaICkjWBjDAsjACBbGsAAyMIKFMSyAeEawMIYFkIERLBrzNSyAZIxgYQwLIAMjWBjDAsjACBbGsADiGcHCGBZABkeRgjEsgHgShXasGYAUjGBhDAsgAyNYGMMCiGcEC2NYABkYwaK1lXUDoAONHjTABBnBwhgWQAZ7YUJ7/1k5AP34HQY6qa0dAB1o9KABpsYIFsawAOLZBExHG6sHoIejIKEbv8gAoAONHjTAtBjBwhgWQAZ7MYIeNEA8KUJ3tQUEMPYO9Lmq7p9VVSW2BjzH2+1u+7StqqA3+3rQAOPuQJ/vD6/+m4dtVD4UFb67N+Xo00PEf9XnKAE6WuQqlJ4eZPBQDzh//NCDBii+A/3pbfpJMzqNapfv2p6sIYBOYsrQa/tFF8rgBMVvnbO7YSswQCdBn6G8/qZw8SiC+8Vv7qerjVUE0MExJiZOXx2DKniY+A0KYFuBAboYx2aVB1HaydXmc+TjlR40QAdRP4T0TVDcLERwh9Gr785q0ITdxjoCaC2oA31p8CigD92y8NyN5flKDxqgvaDUa/S1BkVwyu7zb1lH3AG4KuozlM1qpIUiuHHmbcb0gLW0kgBa2gflRdM79KNoTVj+3kS9YvA5SoC2ogJj0/SAvAlO9PY3tMVxri0lgFbCfgipxQ3am+CUcRd0hZfWEkArUR3oVlM6j4rgr9vPbU5m0E9t6EEDtLKIyox292dt6DTt5xdB57K2mgBaCOtAn1oemDZ0sretQU2OpdUEML6bc4fbs2noBO3nFzFj0HrQAG2EdaA7fKtQG/ozq/F2OWrrCWB09+YmH6L8+HQggT/YdTiPUR/7XlpPAI2FdaC7fapQAr87i5suZzGqzaEHDTC6W3Pnm7NRrF7jV8HPMbUVBdBQXAf61PEIjWL1z9+wAF5aUQANhXWgu9+bJXD38ee/gsag9aABmorrQPf4wfY70dszf0f5uVGAosV1oPvcmm1H6pm/cdd5aU0BNBLXge71e+0SuNP23wydDj1ogHHdl/vemW0IXvW70lNodAAUJLAD/bPno8Ja/vYRdvqWVhVAA3Ed6Mupb7G+lr9TuNJ60ABNQi0wQnpXRiUncO/8vfmhBw0wIoEd6B67kCTwakqXemldAXwrsAN9SXC4pSZwgvwN3EutBw3wfaAFhsg5yQGv5e/4r3VtZQF8I7IDnaYuKjGBV2ku9oTe9gPMXmQH+meaQy4vgRPlb+DvOupBA4znnny5nBIdc2kJnCp/I5+2rCyAr0V2oNP1JctK4GT5G/Z7SHrQAGO6JafYhfRXSd+Fvk93tafz0TOA2QsNsjrdcZfz64Qp36YGBvDZ2gIYT45N98jzOU/1pG2sLoAvHCebJTePZeRvnfKcRW761oMG+EpoBzrx1pRH+Tvm660HDfCF2D5u6proYf75u5nwA9fG+gK46kdonJxSH/7sEzh5hu2nfLkBZiR2M89y4scfLv0Ji3znrwcNcNVi4vXczD/IsUp/xUNbHrUVBnDFbWygDHBDnnMC30/9ii+tMIAr9rGJMsQ/Yb7bgc+TP11+kAHgWvk4g0SJq+nWl3W1Xl/OE92AlOOS19YYQN7sGnQoZ7DtwOeqqh62u93hcHj/33z+n56224fn/8N6Uvkb+YvAetAAVx1jA3iojuRD+uC93x4aB+BzFD8n8VQ20Ya+M/cxLIAR3IwHvB2n+3dU1XbXsfRcPKWM4dUsrrmNSACfip5fOg31D0kyCv2cvYf+h3LYJmlKD5a/wXN3G6sM4BPBHegB3wj2/HXgc5LsfVMLj3Z8+DiPpgfApK1nE8A9xsnO1f1hiCPqE8JDDWD9EvolDj1ogE8LteiNrZsB/zHdRqGr+92QJ/ipWzv6POSJmv63VwAm7zY6gAe9Gbd/t1ltA9Lh0KEQXs7oqi+tM4AEkTXCD2H9s27XeN6F1WaLlhm8GvRogifvfAwL4KNZfFrxVc41T+BqF3yqF9tqLJG1mNVTF8AU3c4sgJvWdiGd58/q4GYPCOehj+6iBw2QV/QmpOG7kQ0Gsc73db4zftckgzdDH8Vcvr4CMFnRm5ACbsX7sbWeP5TBT1X2gnE9r74HwOTE/4zfKe9DRdbi91UGf1kGr/KeIx/DAhje7RwD+PoXsbIXv68i+HGds1yMHn5fWmsAWe/DMXfiK48V4yh+/7nSiT5HHGb0u38bkQDeuswygD8bxDqPLX5fyuAqV7f2R/R1t9YAGpSK038ZuJ5C/L5E8EOGF8A5rvzSagN45RgfwDFB+PZ7HOfViK/Bu3msoF5teADbiATwVaE4n+/y304kft9Xwef482MjEkC4+E1Ice8CH//ffJ7AhfgXwZvZXvqN9QaQrwyKLIT2k4nfVxEcVqzHB/DSegN4m1FzDeBfr4HHOnr16fFWkZt1wn8G2kYkgFcucw7gm7spxe/LAVf1nK+99QbwV4YOtDqo3IevpZMO8MdRAJcrfgD+5KQDZLsH2w5a8MW3EQngj0WG/FUGFfz0VTvrAC9uBXDB9l4CA+SS4xWwm3DBAez1A8BvawHs8ctLYIBwOb5DKYCL7n9snHaAm0yvgAXwWPxw8QEy2WcJYEVQwQFsEzjAL2sBrAHia5QA4fK8ArYXtOgA9vgFkKcFKYALD+CT8w6QqQMtgIsOYBuRALL8FKG3gCNy5/IDlFMAuQOXHsBLJx4o3lEAC2BfowSIl+kVsJeAY7Fw/QHKuf26ARf/F1A780DhbgWwAPYSGCDeUQALYC+BAeKtBXDp/AEAlFP+uP8WH8BeAgOFuxXAAthLYIB4uV4B+0G64gPYS2CgbGsB7G9ADwQgXLZXwALYQ1jt1AMF+x9793brug1EARSyXYA/VIA+VIA/VIADuP+aggA3yQ1wch5+zaZmrRJMglscDulJADM7BAZ4u00AMzsEBmiz9gpgk8AhMNBZ3RGwABbADoGBxiYBTF0An/32QFubAKYugB0CA5Zei69Z4BAY4H0Kj4DtgAWwQ2Cgr0kAUxnAZz8+0NQmgKkMYOcQgJXX2msaOAQGeJubHTCl32F+fKCngwCmNoAXvz7Q0kkAUxvAV78+0NIqgKkNYLMAsPBaevuqnAZ+faCj0iNgDbAC2CEw0NUkgKkO4LOfH2hoFcBUB7CTCKCjWQBTHcCmAdDQ8SaAKZ8IFwMAtDMJYOoD+GwAgHY2AUx9AHsTHOhnFsD8xXU0gPe6FTMCAtg8ADqaBDAJAXw2AkAzJwFMwqeYAAa6WasD+GIMBLCnOICGZgFMQgDrwgKaOVbnr2f4BbAvMcCqK4BNBYfAAG+xlQewdTdEdTuepziAXmYBTEYAOwQGerkJYEKKIYYA6OQggEkJ4MUYAI3U92DdrkYhw+pTDKDRoiuAzQVPcQAd1fdgaX41F3RhAf3UP8Nh3yOAPcUBNDQJYHIC+GwQgDZOAQGs8BhCOwDA+6wCmF+OiiEA7zMLYH45mAoAnTY9HkASwLqwgH6miAC26poMurCAZraIAF4MhAB2JxzoZRbAJAWwQ2BAAKs7tpNwJU0/ANDE4SaA+dumGgLwLhk9WLerkUiw+hgDaLXn0XkTYjYXAFotud4/Mht0YQHd3AQwWbNBAAMthPRgWXQjZLyKpgsLaGESwKR9jp2NBNBASA+Wtyh9junCAnqZUwJ4MRYCWDkEaOQmgPnHKWQyGAlg/w4xAXw2GPU2X2MAbzLFBPDVYNRbfY0BNNvyaLyJMJsMAM22PF7iEMAmA2DF1fna1NFkAOi24lpzE+S05F0MBrBzOT1Y1lzTQRcW0MgpKIAXwyGA9cQDXaxBAWzTUy6nJ14XFrB3c1AA2/T4HtMRAHQR1IPl7qfvMR0BQB+HpABWdSynIwDgTZKaoFUdFUR0BABtbEkB7C9wFEQcSABdzFEBfDEgCiLqIUAPUfmr6ljtpB4C8B4HAcxvkm6F68ICdm3KCmDHfsVmn2MA73HKCmDHfsWiZsPVeAA7tgpg/hX1LItr4cCuZTVBa4MuNvkcA+i449F3I4B9jgFNHNIC+GxMKm0+xwBa7ni0QRebfY4BtNzxOPYr5nMMoOeORwDXOpgNAF0DWN9NpUkAA7xHXBO0Y79SJ59jAD13PF4/qrX6HANoG8BePyo0C2CA99gEMMkBrA0asODa8/gg04UFsOMAtuJWOpoOAD3XWxtgW2Bt0EAHkw0w/+FtcICmAazpptgsgAHeIK8J+mJQfJP5IgNsd9xBMiecSQB0CODFmNgCC2Bg/1w6IX5SXAwJYLOj46aFzZwA6BbAf9jtBDgIYIBmex0drxlmkwLgxVYtWKQXRjTGA7Y6WrCaOM5mBcBrF1otWHwk62jiYkCA3TnYAJM/MRYDAuxOWBO0bpsYs8IIwCudtGCR/2l2NR7A7qwq0HwoqjtAGzSwP1lN0GcDkmPzZQbwQt785X9E1aANB7A3WbeQFBpVR3yaAXY5KtDdnUwNgB4B7KAvy0EAA7xM1HtHLgGHmc0NgFeJuoW0GA/1Ee0BgD2OCnR7R5MD4FW8dsQYBRKDAezLQQWaT0xmB8DuF1hFRhUSbdBAHycVaD6zmh4AL5F0C+liOJRI3EMCuphVoPmU+QGw9wA+G41EqwAG2PX+RgU6VE4N2lgAe3JQgWaUb7TFWAC2N5pcG1mdUQA8X9AtJPsbH2k+0YA+NhVovhDzHrR7SMCeeGaBYSaJ/0MC9mRWgeYrkyIJwNOpQPOlmBq0oQAsrc731EncFAd4QM4tpLPBME1MEsDKqrrIbw4CGODJYq4Ba3CNFlKDvhoJYDc8csR3bD7TAHa5s9FeEy7kqEKrPCCArazNmCYATxVzC+lqLLKtCiUAzxTzZ4SLscg2mScAO1xWlRbVSvTqAQJYdysfmAUwwBOl/BmhddVU8WAp0ErKNeCLoVAsUSoBOgm5heQIeABmCsD+Alhh0VwRwEArKdeAz4Yi38lhBcDTpFwDtqqaLC4CA6144ZfvUywB2FsAOwIewiqAAZ4l5BqwRdXnmo81wJ7GETAfizgEdhEY2IeMW0iOgE0XkwWwoqoqklwwEcDAPjgC5gcibgIbBmAPQq4BX4yE+eIiMGBBVVQkuWIigIE9yLgG7Ah4GKsDC4CnyHjd14o6jIR741fDAFhPHQErmSiYANwj4h0OR8DjSPj3LC9xAHsQcQ3YgmrG+GADLKeOgPnMJoABniChoOhayVASDoGNAjC+jGvAxsGU8cUGWE1VFPnULIABHuf/XfmpgMb5s1EAhhfxDofl1JzxEgfQTcQ7HItxUDVRMwGa8feu/FRA57yL48D4Eq4BW01NGt9sgLVUPZH8sokABsanB4sfC+jCMgjA6CIewroYh7FM5gzAoxLe4VBO9NmmcR6wl9GDxddmxxYAOwhgPVjDWQUwwIMSHsKylpo2nsIC2kl4CGsxDAonyiZANwkPYRmF4dT37mkcAEYX8A6HJugBmTUA4wewYqJ5I4ABOxk9WHzH5uAC4CFHAcw96ruwLgYBGFrCQ1hWUgGsdx6wjjrMY4zSicIJIIAFcEezAAZ4RMBDWJqgBbCnsIB+Ah7CspMxcwQwYBkVwHxP+eGFp7CAsQW8RHkxCgJYAAPt1D+EpQdrTEcTB0AAU8DEARh5FdUE7dvNW5RARwEvUV6NwpjK2wcuxgAYWMBLlGejMKbyK+SLMQAEsGW0ocnMARh4EXWS5+NN7QQQwHpZ+b6jAAa430kAc6/qNuirIQAGVv8SpVtIAtjUARqqf4nSNsbk8RYlYA11kMf3nQQwwN3qX6JcDMKoqjv4tA8AAthzRi0dBDDA3VwD5m5Hcwdg2CXULsbnm+oJIIA10vAjswAGuFP9U9Ducg6suod+MQTAsOpforwahHFVP+NyNgSAALaGdnQyeQCGDeDFIJg+AhiwhdFHw0ABfDUEwLDq/4vBGAysuodPBx8wrvKnoF0DHln1LTZ32AABLIB7mgUwwJALqCXU/PH5BlhAtdEwWAVFAAMC2EWSnjYBDHAf73DwiOprbEYAGNVRAPOI6ovAF0MADKr+vxisoALYO2qAABbAjDWBBDBgA6OLpqWjEwz+ZO9ujlzVoSiMFj8BeOAAPCAADwiA7nb+Md3hm3S/MmDD2dZaKUilz8JCAAKMAAMIsAC3QYABNjn9Y0guwgp38ovkixEABNjnbARYgAGedfrXCC2g4SY/4AACl0//4fkJ5y8MQIAFmPVGAQbYwrcYiA6wU/SAALvJqE2dAANEBvhuDARYgIEGnX4VtCEI15tAAAKMAANkOP1zwJ4gmkL+wwCsngJM3EMUAQYynf45YK9xCrBj9IAACzDrXQUYYL3Tv0boKl8BdpMLIMACjAADtBHgxRikmwQYIDDAls94sxkEsN4owGQH2DMUQIAF2BwSYICM3YsAC7BjfIAAe4uTLToBBlhvEmCyA+wqF0CA3eQrwAIM8KSrAJMdYJ/zAATY11zb1AswgAAjwAACbPUUYFMI4HcPAWanwUMUAAFGgAEEWIBNIgEGKLl5EWAB9iYbIMBuUUCAAY7RCzC7nXyU/mYEAAEWYAEWYAABRoABiurODrBvyQnwXhcjAAiwAAuwAAMIMAIMIMACLMACDFAmwIsxEGABBho0CjC7TeYQgAAjwAACbPEUYHMI4DezAJMeYAf5AAEWYAEWYICMAF+MgQALMGDpFGDyZpH7xAFLpwCbRQIMIMAcZBZgAAHGDhggwFWASQ/wlxEABFiAmzQLMIAAI8AAAizATfAIGkCAEWAAARZgARZgAAHmTfwHDCDA2AEDJHgIMOkBfhgBQIAFWIAFGECAEWAAAf7dYgwEWICB9gwCTH6A74YAEGABFmABBhBgBBhAgAVYgAUYQIARYAABRoAFGGhJL8Dsd/aFpjdDAAiwANsB2wEDJAT4xyDYAdsBAwIswAgwgAAjwAIMCLAAI8AAAowACzAgwAIswAIMEBXgb4MgwAIMtKezAyY/wBdDANgB2wELsB0wQMIOWIAF2A4YEGABZouHAAPEBfjLIAiwAAMCLMAIMIAAI8ACDAiwAPO7QYABBBgBBhBgARZgAQYQYAQYQIAF+GP0AgyQF+CHQRBgAQYEWIARYAABxiwSYMDS+SZ3o2AWCTBg6RRgBBhAgDGLBBiwdL7HzSiYRQIMNKcXYPIDbA4Blk6LZ4tGO2CAwB2wxVOA/YgD7IAFGDtgADtgIsx2wAB2wDQYYHMIsAO2eLZosgMGCAzwYhQEWIABARZgBBigiQD/GIV0VwEGEGAEGECAn/FtFARYgAEBFmAEGOD9hvMD/GUU0vmkJYAAI8AAAizAJpEAAwgwAgxg7fyPUQjXCzCAACPAAAJs9WxCZwoBrCfA5AfYGAAC7BYFARZgAAHmCKMAA0QG+GIUBFiAAQEWYFaaBRhgvasAkx5gd7kAArzJYhSyTQIMIMA0OIcEGLB4bvJjFMwhAQYsnsf7NgrmkAADFk8BZiUf1ALIDLDlU4DNIKA9kwCzz+AZCoAAc7xegAEyA+weIwEWYECAfY+QlToBBggN8M0wCLAAA62ZBZj0ALvKBRBgX2No0CjAAAJMi1NIgAHbF19jaNBkAgEIMMe7mkAAoQH2BFGABRhoTlcgwN4iEWCHCAABdhcl6zjFByDAHG8QYAAB5ni9AAOkBtjXGARYgAHLp68xkPYT7mYUAAG2gAqw+QMQE+CLccg1CjDAFoMAs8vsLwyA2AAvxiHXJMAAsQF2F2Ww8y/CcooeyFQhwO6iFGABBgRYgAmbQAYBsIFxFVZzBtMHQIA5Xm/6AOQG2DNEARZgQIDdpMAKnQADbDMJMDsUuAjLGT5AgF2F1Z5ZgAFiF9DHYzEOfsC5xwUQYEsoT7uaPQDBAfYQUYA9PwFaM1YIsHOssfyBASDAHK/CxzwuhgGI1FUIsJs4UvUCDBAd4LuBMH0EGLCCuokDAQZ4s75EgK2hoWa/3gAEmONNAgyw0VAiwO5SCFXhWx53wwAIsJs4BFiAAZ5UIsBeBDZ7vMMGWEIFmCf15g7AZtcSBb4biESdAAOEB/hmIARYgAEB9h4STxkFGGCzSYDZqsI9HE7QAwLsRWCPTwQYIGoTYxUVYL/dgOaMJQLsj7xIFabOYhgAAXabQmN6AQbYrsb3CL0IbO44vwdYRL0IjAADNBJgy2ig2cwB2K7GB4Efi5HIM3kPUqisAAAgAElEQVR2AhAfYC+TBCpxi9rdOAChanwQ2HtIiRzfA4hfRQXYbzcvsAECbCPDMzq/3AD2qPE5JGdpBFiAAQH2NglPmAUYYI8an0N6LEbCzPEZD8AyaiEl49mJeQPkqvE9Qo8S83iBHGCXIp9D8jpJmt5fFwAfEeC7ochS4xbxi4EArKNWUr/cTBsAAebNJtMGYJciX2NwmiZNjRfIbwYCEGDHoNvi6ADAPoMAk/vDTYABOxlLaVuKnB0wEECwIpdBO06TZfTcBECAOd4kwAAfEmDHoE0bV0EDtjI2M/w/3/AA2KvI1xicp4nSe2wCsFeVy6DdqZCkyCHoxUgAllKnsDw3MWcAIgNsNxNkEmCAjwmwAzVBrv62ANirymXQjkEHqXKBqQAD1lKXUXpsYsoArFMmwLYzAuzVNaAlVa7CcqImx+RfC4APCrBbFcwZAQbsZiyn/KnKuQEH5wEB9o9eU3rPTABeoMxl0E5hpegEGOAFylwG7RSW32wuTwNsZ2xo+NPVLzaAjwqwU1gZBo9MAF6hzF2ULjYyYxwaAOxnLKj8ZfSDDeAl6gR4MRgJyry4ZiiAcGWuwnKxggnjzABgPbWi8rvBdAF4jTpXYflTL0HngQnAa9S5Cst7JQnKnMHy3jhgQbWktqTMXxaLsQDC1bmJw796CTwvAfi8AHuxpL5egAE+bkV1FYffayYL0JBCV2HZ1NRX59D83WAA6QoF2Jsl5V39XwH/2Lsb5LaNHQDAlugDUAkPIDs6gGTzAHKH9z9TM9P3ZpImbcOIP1jg+y7gGYNcLLDgCvItqaaw9Es8K4AErK3Ij/x6JcByAl2F5RA4utFxBUDCNdVVHNolHhWgkEBXYekrBhdoZP4uGkDzIt3E4RDYs+K0ArCoWlb5m0DHFWfRAJoX6SosJ3uxDRIwwHIiXYXlENij4h4OQFnjEJjv+eUsgLwJuBePuEYJGGBJkW7icL+CrZrnBFDXqGz4VqRxPdN6QAaRbuIw3RpYpA/W7sIBWFcdAlfh1nCAzAnY4V5Yg0YJwKJC3cThA0/Pic/VgDImPWj+27NtGsDCQn0IbL7VY2JYHrCyWlv5P1eWAizuEqsHfRWRiELN6hnVA3IYYyXgXkQ8JT4DBkqIdROH6iYmV4YDLC7Wh8AmXEM66pIAJF9bra7aJO7hAIrogiVgHyIFFGtU/iogQA7BErBvTGzSPCGA6kaDkadocwISMJDFRQ+alh4Rg/JAFqMeNP+qs0MDWEOwD4HN2IQT7Eu1XkQAy6uLjkq4SMAAa4j2IbAedDSm9ABWEe1DYD1oLRJ3pQEKHD1GLhokAOsY9KBpZ4Pm6QBUOHrQJUTrQPsMGMhj1IOmnf3ZXUgAJY4uYwV2ZwB1ErAetKdDAgYKOMZLwHdRieJicwawmkkPmn8Q7ytxMQESGeJl4LOoxHCwNwMolYD94o1nw1dIQH6jHjQ/19maAazoOV4CNutqb+bBAPIL+B2STmMMgwQMsKKA3yFNH1dx8WQYzwOS6yY9aH4m4HSAoACpDBFLYGGxM/NYABKwXmNFAYcDzAYAuVwiJmDfm9iYeSqA7CJ+h6TZuLuIw3l3YQFSifgdkjGs3Y0eCoCCpY4SeG9dxNGAs7gAuZbakAnYYqsv4iskILuQY9AGbjwUuiKAtdZqW03IcwlfIQHZjDF70L3IeCY0RYDUniclMN/pbMkANhDzOyTr7Y5uHgiADRyDJmBHfruJORZwFRggm6AJ2IKrJ+IrJEC9Y+jGA2EoAGBhl6AJ+EMJvIugZxKOJIB8xqg96F5sbMj8FAOQWNQxaE1HBbDtGCABW3M1RNwODrCsblICE/5puIoNkM+gBCZ6AWwzBkjAVl0FsCFogNRFjxJ4e7eoT4KvwoGMniclMH8VwIOtGMB24o5Bm31VAEvAQOayZ1ICE7sANgQN5DQpgYldANuIATkNSmBiF8AeAyCnS+QSuBcfBbAhaCCp50kJTOhZANswIKfIY9DW3s2MHgKAjR0nJTCRC2BD0EBWkxKYi00YwOYGJbA2iEcAQPHzN59FqPgzYAgayOo5dgJ2Arg+g3gAVt8f+S261Q0SMMAOuuAJ2IWUa7tpgQDsInoCNoSz8g7MGB7APoboGbgXozWNsaPvCAKwAO9XA10FaT3H4NE3BA3kFX0KyxpcugGi/wFIwOawRF/sARbUxU/ABnFWC374CYCrIAF5DfEzcC9K67jYewFIwOqgzcU/fjAEDWQ2NpCArcNriN+Anu6iBCiDNKFtvcQdYEnHFhKwj4FrBv4sTEBmLSRgTejltXD4L0qAhVgzMptbC40PYQJSu0ya0PU0cfTvEjQgt+dJE7qcbtD2AFALWY21PcxgARWLoUYS8IfluNqm6ypSQG5DKxlYqBZyHAQcIIBLIwl4+ixWpbZcjv2B7MZWErBj4GXcGgn3XaiA5A7NJGDfIpWKt/0WkN1xaicDi9bj4W7lzN8MFpBfOwnYMfDjBrstAEuytuTmmhm5M4MFFDA2lIBdzvCYWzuRdhElkN+hpQRsEOsRR80OAKuyo8HNtXEFtF4HUEdTCXj6JGAV8q+NFlDB0FYGNgr9my46HQCxjG0lYKeDv+elqSCbwQIqODSWgB0P/o6bXRZANMfWErBR6PT51yYLKKGbZGBdjmCEDChhkIE1OcxgAWxvnCYLdOr829wWywwWUMNhkoEz69prcfSiBtQokBpMwC7kyJx/zWABVbSYgP1cTuL8q78BVDFMamD51+YKYHPjpAaWf81gAWzuMMnAOR3bbG70IgdUWaYbTcDOCnPm3+kqdEAVU7MZ2FKdMP/aVwF1DDJwQm+tBtXRAlDHOMnA6dyajeld8IAyFp/C+jh9tU1d/XEWv595aXdT1YseUMaSP4h0en3/WpR2T9fu6en99bTBev1ZAFPlXzNYQCVLFasfX35YPDfIwTLwDzuqoeH8awYLqOSyzMr580z4tnoKdinW944t518zWEApz+vOQ72tnRCMYn3rMDWtF0HAkr1cElz7SNIo1nb/67UJJVBJt/q6uXpX1EHw/0I5NJ5/JzEEShlWT4CrJ4ZPV2Fs/fjXDBZQz+NXcfx3+tOGXl/r7efJTyEB1Tx8CPwro6ur381UvQ3dfvvZDBZQznGTZXP1DHy6Vg7iW4b86xoOoJptRldXz8AfdYvg7iVD+nUEDJRz2aZuWf8XAqrOYuUof13DAdQzbtQ4XD8DlyyCk5S/X929i0Axh40S8BZzuvVOgrOUv67hACqWUJuNzlw2WMVrXQ7dnaY8vIpAOcNWhcsm38pU+ib4JVH6NYMFFPTgIXD/639pm8uaqgxjJeo+u4YDqOnBQ+D7dn9KH/qbzcxpyqX3JgLlPHgVx6yvR24btTO/JI9Z9zJlc/UmAvU82Mrc8m9JwUnTryNgoKQHp5PPG5bbcz5JypqCu5chX/51BAyU9Lzl0nmYpGDp1xEwwAJV6czm4Zb5I10Kzpp+XcMBFLXp2tltuq6nOgvOePbrCBgo7cGqaubx3W3jpT3Ld8Fvpykvv8QA1PTgVRxzvyDZuouaIgW/DlNmd28hUNKjg1H9vD933H59b/wwOO/RryNgoLZHj2XnHuCNO6zwDZfBr6cpPS8hUNSwbQnc7VPPnV4bzMFvBbKvGSygrnHj9fOw10LfWCv6PX3r2REwUNzDCXFmCfy0Y145fWmkDn6rkn1dwwEU1k1VSuBWcnCl7Dv5JQagsIdX+88z/+Bl5xX/9Ok97nbo7VQq+zoCBip7eC75Y2YNcwyw6ocshN9eTlM5fokBqOvxlvDcq4wuIVb+06dISfj9tVrp6wgYKG+BC5rPzZXAoZLw+0vR5OsIGCju8cW/hds44p5B3qbCHAEDlS2QDmce5HWBMkC/fwtiKJyAHQEDlS3xXdC51RL4I0kAHAEDtGeJenTmJHScU+BzhAgULoGv3j+gsiXW/5mT0FFK4Bi/RVu3BHYEDNS2SDacdx3HUQGsBHYEDJR32CGXXRTASmBHwEB1ywwlzzsGPlr/lcCOgIHylln+P3b4m1lOIIuWwI6AgeoWGoma1dA9KIC/bULULIEdAQPVLZUMZw1iDeqv5fdAjoABmrLYzVRzMvDB8r9GCBwBA7RksWr0PCPlDJb/b1wK5l9HwACLNUDnjELv3XX9I1QIKo5hOQIGOOyR1fb+EukcKwYFx7B6bx5QXrfLorpv1zVa/7PgrxJ68QAWLL9mNKEPyq91NkGOgAGaseB57IyDvV27rtdoMSg3hnX33gEsWoye90j7jY9g7d8QcAgPsI9dUtueXdc+XAjK3YblrQN4Wrb/2e/yV9tf/cda+fcPbx3AV8+7DNccrP4h/ht6EAC7Oe6ytO7XdQ25+tfqQZ+9dQBLL/6/XgLv1nW9RoxBqR60j5AA/nLZpb7c6zasmOePpXrQ7qEEWGHx//XqZqeuax8zCJV60L13DmCFWvSXV9edLmC8FmhDBHf1zsGf7N1dcttGFgbQkNACQJkLgH4WAFlcAOlo/2uKPVOeqVQcCyQb6L63z6nKQ57oAgR8/C66QVihfS2uwHW2Are6A6ajGbRHwAA/nepU4CpT17HRc9DR+6A9AgZYp319q/Ox0cef/cygJ1ccwDrta6rzscHHn/3MoF1wACu1rz/rfGzw8ee+l/z1HkqA/3uoM+atUPrGdk9CLxuRRtcbwFrt68vCj60wg274JJw6CeDJ9QawVvta/KB18xl0y+PPTh4C24QEsGL7GlvNnHPD56CTjUg2IQGsmIRLi+Zg/LnaGMIjYIAIhkpBdzT+XG0M0ajZ1QawYhIuXYb1sO3Nv+0dMF08BLYJCWDVJFxaNTfe/HruagxhAg0QwL7SfXbbGfTU1RjCJiSACI51Jo3bPvds/Bx08BDYJiSAtW/+c53mHfru38FDYJuQANa++Z/rNO/Aj4C7eAg8utIAVr75L22bJ3f/Ot9G6nChAax+85/qNO/QW1BfbUIC6E/pJFz6tG+71tf+AqCH7AE8us4A/mFfKe5O6leVcYDXYAG04lin7WwXOufmT0H2VVg2IQFsUUWXFs7NZtBTf1+CbEICCKB4Fa0U/JHnn8lXYU2uMoBfqbTiZm/++T+5V2GZQANsU78am0FH2AKTexWWCTTARnf/ednnvlmD9VPuVVijawxgm7v/WOlzA9/+U6/Cml1jANvc/ZcOfV/d/rc9FF6DBdCWWjPoTZ58xlgBdEocwKMrDOBf7Gvdco8CeMvvIibQAK05Vgq9LXpfjCW4+7z5axMSwIZBuLD0bBE75xinIG8An11fANsF4Vipesd9Apl3GfTk+gLY7va/dOHrBo8+5xhnIO0yaBNogN+pNYPeoPj1ega8BgsgguJNdGwldy69ngGbkABCqPXyhdXfhhXlLRBZl0GbQAP8XvFHkHOtDw66Bjfr26BNoAF+r9oMem8Cus4MwgQaoM8Ctnj0u/IyrCnKGUi6D8mlBfCJ0qPgxc/+Vl59NPd6AtrghxgANs/BsY3qF+YE5NyHNLqyAD5RfAa9ePXNqhU4ziLcnPuQZlcWwNZF9FLtk2OOQFMGsAk0QIUAmFqInji7YFJuBB5dVwCfKj6DPrdQgc9xToAJNECn6s2gdyrYHyn3IZlAA1SJweX1Z73smQSwCTRA44Z6t9+dGWjKjcCzqwqgRgX7Vu+jI76IKd9GYD/EAFCnh17qfXTECMi3D2l0TQEsUnwGPS3/7FcBnC+AZ9cUwDKlB8Hn5R+90i7YSMtw020ENoEGqNXBrrkDr/MENNKv0ab7ReDRFQVQq4PNV8TPKuuwzpEOvwk0QLeOFTvQrvsSlmwjsAk0QL0QvGoCfBTAJtAAnRpqlqA1FiFNkY5+sjdxzK4ngHol7KoAfOs8BHIFsPdAA1xjV3UMWX4GG+rg53oV1uhqArjCULUGFR9Cx1oH9GACDdCv16oVdNd1AKd6FZYJNEDdEBir5r8ANoEGCKL0DPrKV1EVfh1HrBqW6l2Us2sJIFQH3deMfwFsAg1Qza5yE3rrN4AzvQx6dCUBXKv2nfip4Iefuz70NbmOAK5WeAZ9fQkt9xj4MsU69HneRfmn6wjgaoVn0NcvRC62EOsyBzv0eQJ4dB0BVI+B61OwUAJ/mzs/8vX4ISSAW5yql6F9iSR6jHfkX7MEsAk0wC329W/G9yfw5UvAI58mgCdXEcAtjvXHkfcmcLTlV6vMHkygAYJ5aOCdSPcl8OMc8sCfTKABulZ4Bj3e9I+4YyVWyPHzCt98vIYSIJqyM+jzxv+KQ9j7/4MJNEDfym4Fvvm1wE9d1d8/0vwc0ugKArhR4ZcS3/zv+Hp9CQ769DdVAM+uIIBbld0PM93+TeBw5fR5Cn3YcwSwH0ICaCUJxjv+JW9XlODDi8NuAg0QW9FlWHftShmWPgm+vIQ/6il+ENgSLIB7nBq6JS+K4MNLgqOeIoBtAgZoJwrmO/81w9PvG/kl9NKrZAE8uXoA7nFs6548fD38e/q+ZDnogwk0QPfemluW8z2D//Gt4HJ4nhMd9AwBPLp2ANrJgmKPBYf356fD4XD5/t/h8fl9znbUbQIG4LXlseSQ9KDbBAxA0T2pDmcvATw6iQD3lsySy7Amx7OPALYEC+B+J71oc8foAWwTMMD99u7LAtioAyB2GphM9hHAzjNACSWXYc0OZw8BPDqFAAUM7swC2PcsgApOAlgAe9QPsL2Cy7C8n6GHAPY1C6C5PLA6p4MAdpIBSim4DGtyNNMHsAIMUMrg5iyALcECqKDcLzJ4CJw+gJ1igHJ2ng8KYEMOgNCJMDmYW04cLMECUIH/6+xg5m7ATjBASYMnhBqwJVgAoSPBDTp1A/YFC6CscjPo0cHM3ICdXoBWS5kXBWduwJZgATRbgd2iMzdgBRigtHLLsCYHM28Dnp08gGZbmRl03gZsCRZAeXszaA3YBBogcipMjmXSBuy7FcAadmqSBuzMAmxvOOpJGvBvT+zs1AGs4WQGrQFbXgewvb0btQbsixVA4Fwwg07ZgJ1WgLXsVCUN2BIsgMDNzAw6YQNWgAECVODZsUwXwF+cN4DVDKaVAtiXKoAKTsaVAthroAG2V2wn0uRYJgtgZxRgVaXW51qGlSyAzTQA1mUZlgD2VB8gcja4YacKYAUYIEoFdsdOFcC+TwGsbVCBBbAnCgAV2IkkgK2pA6hRgU0tBbA9SAAV+E0kAewlHAAV7FVgAexMAgSOBxU4SQA7kQDb2ClOAth5BFCBHWAFGEAFVp26C2BnESBeBZ4dy/AB7CQCbOfNCxwEsHMIsL1iL+PwBof4AawAA2zoVGx+6VgGD2Av4QCIWYFHBzN2AJthAGzqtVgFnh3MyAGsAANsa+8OLoBNMAAiV2C38MgB7Bk+wNZ2H4bQAti3J4DIIaFFhQ1gpw4gcgX++OJoBg1gBRggdkq4j8cMYAUYIHgF9hg4ZgD74gQQPSZUqYgB7HsTQPgKbDdwxAD27B6gjuHoZt51ACvAAAkqsAQOF8B+hxAgRQWWwMEC2BNggHre/K5OvwGsAANkqcB2tYQKYAUYIE0FNoUOFMAKMECiCiyB4wSwAgyQqQJL4CgBrAAD5KrAH4+OaYgAVoABKjvZ3dJjAHtzGUC6CvxxmQSwAgzAZ97K3927H0MfPQEGYPsKbAx9VIABqFGBey/BRwUYgCoV+HsJfhHACjAAm1fgj49Dodv88C6AFWAAFfiaOXSBCP56CJgXRwUYgAV2q93q74zgr4djyD2rRwUYgJoV+Mcg+tZnwcPzIexLI44KMAB1K/CP5Vg31OCvT4fIje2oAAPQQmJcHq9YSPW38NWA7dEGUIHvuu8fnj8P4ffnwyHDe4tbDmC/VwXQX2RcDo/P778sYMP789OvslcAK8AAKnCxdVnfPT4+/8fjj/85ZHto2XAAj/7WAWRG2p/Oa/dgXvylA3RcgQWwAgzAT68COH8AK8AA7dnbuJo/gBVgABVYA1aAAfhhEMDZA1gBBmjSSQDnDuBv/sYB2qzAjeaGZ8CFTP7GAdr0prhlDmC/wgAgOARwBbM/cIBW7QRw3gD2KwwAksMzYL/CAEDzFVgDtgUJIL1XAZwzgL2DA6BtewGcM4AVYIDGnQRwxgD2Dg6A1g3CI2MAT/6yAVr3JoDzBbB3cABIDwFsCxIAv7ITwNkC2Ds4AEJ4/Yu9u0tqHIcCMIqdWUCc0QJiyAJi6AWMu7P/Nc0A011ABfJDbOtK57z2k92q+pAsKQJcVoAdQQKIoRXgsgK8NqYBYvghwCUF2AQYIIrMjiIJsCNIAJVoBLicADuCBKAgAuwIEgBfaQW4lACvjWaASHYCXEaA7cACiCWnfVgCbAcWQD0GAS4hwH4FCUBEBNgOLABOawU4foBdAg0Q0E6AowfYDiyAiLLZhyXAdmABVKUR4NgBdgcWQFBJgCO/ODuwAKJqBThygNdGMEBUgwDHDbAjwACBKUnc17Y1fAHiagQ4aoAdAQYIbSfAMQPsCDBAbDkcBhZgO7AA6jOYzEUMsB1YAOGJScB35ggwQHwrM+B4AV4btwDxDWbAl/LGAChgPhdvBrx0gPcGLUAJWvO5WAF2BBigEIMZcKQAOwIMUIxkBhwowHsDFqAUrRldnABbgAYoyCDAUQJsARqgJIveSCnAfgQJoFqtAMcIsAVogMIMAhwhwBagAYqTRCVAgLcGKkBpWgHOP8AWoAEKNAhw7gG2AA1QpCQrmQd4b5AClGglwHkHeG2MApSpEeCcA+xHCAGKtRPgfAM87g1QgFItcyGWAFuABqhdI8C5BtgCNEDRdgKcZ4AtQAMULglwlgHeGpoAZWsFOMcAuwILoHiDAOcXYFdgAVRgpy65BdgHYIAazH4WSYCdQALgbv6zSAJ8wsaYBKjDIMA5BdgCNEA1kgBnFOCtAQlQi3k/AwuwE0gAvGoE+Ku/T1xBCcBEBgHOI8A+AANUJglwFgHeGooAdZnxM7AA+wAMwB+NAC8fYB+AASo0CPDSAfYBGKBKSYAXDvDWIASo0VyfgQXYFdAAvNUK8JIB/mUEAtRqEODlAuw3gAEqtlOapQJsAxZA1ZIALxTgrcEHULM5NmIJsBs4APioEeAlAuwGDoDqDQI8f4BtwALgrlebuQNsAxYAd9NvxBJgG7AAONabJMCzBtgGLABeTH0jlgDrLwDHNAI8X4BtgAbgj0GA5wqwDVgAvNEL8DwBHrcGGwBvJAGeJcD6C8D76CQBniHANmABMF+BBVh/AfhUK8BTB9gGaACOaAR42gC7ARqAowYBnjLADiAB8IlegJ+1+gvAvHYCPFmAt4YXAPMWONpLmGQJem1wAfBFe5IATzIDdgAJgNkLLMD6C8ACBRbgjXEFwMn8JN+AXcABQAETwNpfgP4CsEiAKn9+F2ABcKZBgF3AAUD4Akd7+pX+AlBCgWueAesvAIsVOFqDbhjgcWsoAbBUgesNsP4CsGCBqw2w/gKwZIFrDbD+AnCVXoD1F4C4Ba4zwPoLwMIFrjLA+gvA0gWuMcD6C8C3DAKsvwDELHB9AdZfADIocHUB1l8AcihwbQF2/zMAWRQ42vOu9BeAEgpcV4D1F4CbadN3ilRVgPUXgEwKHC7Ad9/o709jBYCbzgpTRQG+/lk3RgoAuRQ43qQw6S8A8Qv8K9yj7q580r+NEgAmcOXF0P+Ee9Af+gtA/AKvwz3nX1c959YAAWAiQx1halw/CUBmabriQ/A+3FO2jv8CkFubUvmnkK44CKy/AEzs4s3QEa+mSI4fAZCdvvQ9WBdvg7b9GYD8CrwN+ISN7VcAZOix8E/AF/0cg/4CMJsLtmLF/HWC85+v2xsOAMw3RUwlfwK+4COw7VcAzKsv9hTwyxT/zOVn268AmNtjKncF+sw1aJ9/AVhilpiKXYE+7zron3uDAIAl9GXugX628vkXgHwNpU6AT/8msOVnABZ0Yhl6DPxkLn8GIGOrvswJ8IkpsOVnAJY2pOK2QL/+aWH5GYC8S5XKXKZtXH4FQN768hagn+389hEAeTu6Fyt+qJLlZwDCTYILmCgeWVy3+wqAvHy4mbKMieLHPd6mvwBkHauxmIniu78rTH8ByLNWffds81DUQ3UvDe66h73/YQCynQff7Yt8KgAAAAAAAAAAAAAAAAAAAAAAAAAAAAAAAAAAAAAAAAAAAAAAAAAAAAAAAAAAAAAAAAAAAAAAAAAAAAAAAAAAAAAAAAAAAAAAAAAAAAAAAAAAAAAAAAAAAAAAAAAAAAAAAAAAAAAAAAAAAAAAAAAAAAAAAAAAAAAAAAAAAAAAAAAAAAAAAAAAAAAAAAAAIIanp/u++894+Ggcx+d/6O7vn572XhQA3Kq9z+lNh7O8htg7A4BvxrfrDhcbu8292TAAXGX1eE1831b4QYQB4NL6psP3iTAAnO829f39WViDAeCMyW/fHW6s22gwAHyl7dNhCubBAPCpp+4wmXHjfBIAHJv9Tpjf/6fBXjIAvLfqD9MbfQ0GgHf5TYdZ/Mve3ea1qbQBHG7EBQRlAYlmAahnAaaH/a/p0fbpse3PlwDDMPdwXZ/6yUhS7n+GMFGCAeA/j5nyK8EA8Lb8bYesJBgAvn07dkNu51tPOwDbdnUc1tAePPUAbNhDN6zDdWgAtqs5Dus5WwQDsNH+dsOqbrwEAGzQ48r9HYa29yoAsDUPw/rOvp0SgI05DkWwIQmALWkK6a8Pgid6vJto0WsOzdTf6q7f7JnoKYOtnfXdUIyzQTLeQ5HveK46/wvynYm+zgb0V4Hz2815vvdF/rc6b/OVnPWUHZwJEM5VUf1V4Lxje7nUzbutb7/FF3LWO6nhuzMBrH8VONLYXix1nZqMdZr3SjpvQH8VONTY/nehCyuDmow9F4fBVQPQX/dCBzLzJVzoGvS1mmS+lLHUWylgS/21HzjnummhteZJgHMH+OxkAP1N4ODF2XiAN7ic+0eAYUNOpUA0mGoAACAASURBVPbXHZ2XuyrzzU4nwAIMfOg4lKv38giwAAswVOqh4P66o1OABViAoVa7kvvrjk4BFmABBnM79ofAzdOL3gspwAIMFKHcG6BTBri5a9sfP65rb2r9Y8MCLMACDKEU3t8kw+Sx/fNH3lS5DhZgARZgiOSh8P4mWAH/ld+fCRZgARZgYE270vs7PM89xPf3WFX4N9sEWIAFGALN7K74AO/nHeHHH3FX9y2XAizAAgxxlN/fmQH+7B1GbZehBViABRjCeCi/v/Oq8PkBfu8FWIAFGIg4sUv/Ksqv3mDUVWABFmABhiBK3wE8e5Z8fYdZVVehBViABRg2cpqXHuBL7jCrqcAC7MwUYIhhF6G/M7YBX7bAr+heaAEWYAGGGLoQAZ4+fk9rVkeABViAgQ88hOjv9F1Ilx7fuRdgARZgINC0LjzAlx/fjZdUgAUYyKcLEuDD8se3r+QlFWABFmAIIMgF6MnbgMccXy0XoQVYgAUYytdEWQAPOY6vkjuhBViABRjKd4rS33OW4ztU8aIKsAALMNQ/qgvfBnyV5VEEWIAFGMg8E0vfBnwqIz0CLMACDPxhF6a/w3OeElWxBBZgARZgsABedxvwqZT2CLAACzAQcwE8KcBTQlTDEliABViAoWxNoAXwpCacyomPAAuwAAP/eQjU3ynfw9FsdcwLsAALMJS9AI7U33O26VXB12EJsAALMFR9chcf4IkDfy/AAizAgAXw9HujdpsdWgIswAIMFsArfg/Hqaz8CLAACzAQbwE84bpws91BL8ACLMBgAbxegHfbnVoC7CwVYLAAXm8bcFdafwRYgAUYCLcAHr8NuNnwpBdgp6kAgwVwKqOPcLfhsSXAAizAUKyHYP0dP0hO5QVIgAVYgIEuWIDHbwOe9XDPAizAAgwsYTfUHuDdlueWAAuwAIMFcCLPmSdXL8ACLMCABfCEbcBd5scTYAEWYOBrp+oD3Gx61guwAAswVDqfy98GvNv04BJgARZgqPOsDhDgf3I/oAALsAADX2nC3YI1fo7MPsS9AAuwAAOJxbsFa/wcyX/btQALsAADS68Oy98GfJX9EQVYgAUYWDxO+Y0dvbv8a24BFmABBpY9pyPsQkpwjL0AC7AAAyk1wwYC3OV/SAEWYAEGPrWLGOCxQRBgARZgAYbSdBED3GcOUPBpL8ACLMBQ4WxexQqr/POWX2QBFmCguDM6xDZgARZgp6sAQ2lCXoH+nnlsRb8NWoAFWIChOCFvwRo9eU9r3PglwAIswMDCa8PsntdY5u8FWIAFGEgmZH/X2AYswAIswEBCu00EOM13jQQe9wIswAIMpTnFDPDIHqTZahX4zzEIsAALMBSmidnfNb6HQ4AFWICBdIJegT6vcpiBZ5cAC7AAQ2FOArzw7Dq2k90KsAALMNQq6hXosReDr1cL8MOcB0xXYAEWYAGGsgS9Aj168Cba7NznfofTp3qhBViABRjKEvQK9Ogduae1ArzLe5wCLMACDDFEvQK9VoAPucflswALsABDlaJegR6dg9UCfCokMAIswAIMRYl6BXr0teAuaICT7TwWYAEWYChKFzXAKx3oXoAFWICBBMJegR49RKIG2CVoARZgcC5H3gZsBSzATloBhpJ0AizAAizAQHZXUfs7PG8lwC5BC7AAQ42uwwZ4dAitgAVYgAUYytEJsAALsAAD2YX9GqwJXwnpErQAC7AAQzF2AmwFLMACDMQ7kwNtAxZgAXbaCjCUoxPg5SvkErQACzCQeiQH2gYc9o8xWAELsABDfQJ/BDx+7AqwAAuwAEMpTnEDvM8+tabe/OUStAALMPC3QYDLD7AVsAALMFQn8BXoCTG4XunmLwEWYAEGllkTxtgGnOjtRv4AuwQtwAIM1Ym7CWnKCNlZAQuwAAswFGHV76E8D13mEZJmz9WEHAqwAAswsMCScMx537Y3d/f3T09PzU8v/3p8vLtrX3SLVylqgF2CFmABBqfxnPbe3D31n/wy/dPj3YgMT5i6aRb8z1bAAizAwMqT72LtzX1/YSSfXiq8UAfTHO9egAVYgIF5Mn0EfL65H/uL3X29Ep7QwagBdglagAUYKpPlI+D20rXvXx6PbfIAn1Ic0CH741oBC7AAQ2Wuc+R3xgL96dilbUGSz7zzh1+ABViAoTJdyfn92eC7D5fBU9bVKZb8U0aXS9ACLMDA75b+7Pc+xS959f7HwZMmSIoAT1mOWgELsAADKcfx5276RL9n896V6EkTJMVdZ1OmvQALsAADv1n0I+BzylndHBNNkAQX3fcCLMACDMxzirD8/ZXgNkmUEhzyIf/DCrAACzDUZbl7sM636X/bq3b293AkuQ16yjsLARZgAQZ+W1TGuPz85o+PgveTfsT8u7AmTS4BFmABBlLG6KOTu1/oN/7to+CJA2T+fWeTYijAAizAQLpzOHt/Xzx2M2fu7Mvuk1beAizAAgwkbFH+/r4tgvu1DnpSggRYgAUYeBOxv78WwZNv8pq99WrSowqwAAswkG4Yr9PfF8cZ33C5W2VwCbAACzCQLEWr9XeWubd+PwuwAAswMM8SX8Ox0P6jgob9XoAFWICBdadeujxFmlyrvNkRYAEWYKjIEl/DcRvguK/WSKEAC7AAA78s8BHw9xAHvsYSX4AFWICB5QJc/A1YCWJ4WOExBViABRiqkv4erH2MA9+tMLYEWIAFGEg19EJ+APyqWWHSC7AACzCQIEPBz+hT/v4IsAALMJBqFOcZzUvY5Z9aAizAAgzMrlDkO6B/yvw1WAIswAIMpDuBY94BPfPYJx+kAAuwAAOJZl7MO6Dnrf6nd1CABViAgf/b6h1Ycwb+9HcZAizAAgwkmsSBF8BTl8AzZpYAC7AAA3MSVMMdWK+m7cGasdFZgAVYgIGfrje6BWnO+OoFWIAFGJjrtOUF8LQQ/bve0y3AAizAUI1u0wvgSUU85H04ARZgAYYaNdteAE8p0ayjFGABFmAgzSAOvgCekMRegAVYgIHZdhtfAI+/BjBvxguwAAswkOT0Db8A/vbtYdy8mrUAFmABFmAgSRBqOJObUVP/dtXnW4AFWIChFglvgt5HfQ52GceVAAuwAAM/Vn8WwOOqeMj3UAIswAIMFUt4E/Rz4Gfh4rl/O/ehBFiABRh4lfAm6H4DT8P8YSXAAizAwKvrje9B+uV42ayaXx0BFmABBhL0oIZbsEZM/v3qT7gAC7AAQyWS3QQd/TS+ZC/SbYLHEWABFmAgaYDDT76vb8S6KeCSgwALsABDHdLtQjqEfy6+KnCS/gqwAAsw8CrZTdA1nMWfFzhNfwVYgAUYSBrgfQ3PxmcFTtRfARZgAQZSnLxVbAJ+03y0G+l8n+ohBFiABRj4lm4XUjUn8fHdArR9Kc+4AAuwAEMdOlegv14Et/cJf74AC7AAAy9cgX4nTX+ugpPmV4AFWICBH8s9V6DffVoe27Z9Pay2vXlK/LMFWIAFGEh3E/Rzhe9NmqZfYl0vwAIswEC6AB88lQIswAIMXO7aFWgBFmABBsLVYMNTT4AFWICBFcdddZuQBFiABRgIFODeMynAAizAwOUS7UL67pkUYAEWYCDnEK52E5IArxTgkwALMGxCol1IB8+kAFsBCzCQPcBOYAG2AhZgIOup6yNgAbYCFmBgheWGTUgC/D/27jU7VWQNwHArGQBkMwC8DABjBqBZzn9MnV7nsvqctdsg1IWinrd/d7JVqMePQmMCBrCkDOOGLWAAm4ABLCkXwM5fAJuAASzppcJ8DNgWMIBNwACWlAHgmycSwCZgAEt6pTCfQho8kQA2AQNYUnqAR08kgE3AAJb0Sm/uwQKwCRjAkso7c2td8QBsAgawpKyLna/hALAJuCqAm+vx+N79p+PxdB2d0lKWxc49WAA2AdcC8Le9Xfeb//vb4avTWsoCsOtXADYBbx7g5tg9e2W67mQSll4qyMeAfQ0HgE3A2wb4W98JP+X95OSWEi7B7sECsAl46wB/dFNfE2OwlBjg1vMIYBPwZgGeMvz+jeCjE1yaVpDv4Rg8jwA2AW8T4ObSvfrDOheipWQAuwcLwCbgjQJ8mfVuqBud5FL8ExfAADYBbxbgj27uz3t3lktJAHYPFoBNwBsEuOkW/ERDsBR9rXMPFoBNwNsE+LDsdbjbCZYir3XuwQKwCXiLAC8af//VL2e6FB3gwq817buZvc9+4AuFuU//N55MwACeA/AlxMpgI1h6Vogvwir8Hqzd/JXmPlfgEBf+Q0whVU7ATTf7Hdfih3uY/avTAtwcwhx9X6M1VooKcNlfRNn0GR56QoCfvkmocQJe8oLfFz7eQ7RDLSzA+z7U4UdgKeIKXPwFv0sOgBIC/PTlqXECPodz6uWLLfFudQwK8KVP9AZQqrsQ38PRFv0M9OnffHwcEvr71IwKJ+B9xoO9j2d/SIDDHp4ElmICPJT8BOzj6fZP/HaPtA0m4HBSfeU71to0ADeh3x52llkpHsBFv8P9TPzgk/P7dOGucALuk7/j+m9vES+sBwO46YMfgO6FluKct8XfBH1+RBxL1sDv04W7vgm4yfiIFz6srxQAR/DX54GlSEtd8QD3CQHOwu/Thbu+CXjxI26zPax7AoD3fZRDkMBSJIDLvgk6HcCZ+C0R4IgT8K5cgB/xAY7k7+KPb0nbLMAJdyv58Tep1uNs/JqAATwV4Fj+uhVaigVwW/LjTwNwc+kfDwCbgOPd8BcC4H2f5SCUqi3AqVX01aUUADfHnPyagE3A0wBuoh6mtoGl4P48Sv9TDNHX4+aQl18TsAl4EsBN5ON0sNxKgRfg0m+Cjj0B5+fXBGwCnnQaxz5Q75ZbCcAJAV4DvyZgE/CU0zj+16O6CC0FXo6K/1tIEdfjdfBrAjYBryQXoaXQABf+x8+jrcdr4dcEbAJe/4EoATj1grThCXg9/JqATcBrqbXiSmFPWwDHmOFMwADe3ATs6zik0KftUPQTEAngywPAJmATsPuwpIijxqP0jwHH2QNuHgA2AZuA3YclxQW48E/3xZmAdwA2AZuA3YclRV0SANxGurBgAgbwBidgI7AUEuDC39LGAbgHsAnYBGwEliIDXPjHgKPsATcPAJuATcBGYCnq/Pd43EzA4VkzAQN4oxOwEVgKCHBb+TMAYBOwCdgILAEYwCZgE7ARWCqivfezADYBm4CNwFL6AnxedTQBA9gEbAKu575NaT0A134RHsAmYBNwVW/apdUAXPj3cAAYwCZgI7AE4CwBeFGna4xcgt70BHy38kpBztrSb2k0AW8xE/C6ay29UoiztvSrSQAGsAnYCCxl6AxgAAPYBJy6wdorBQC4+ItJAAawCdhtWBKATcAABnAFE7Br0FKIP4YEYAAD2ATsNiwpA8ADgAEMYBNwuGNSAnCIN+VFBGAAm4DTN1p9BeDqzyMTMIBNwK5BSwXqU/7NFAAGsAnYbVgSgAEMYADXMQG7Bi0AA9geMIBNwDm6WX9VefuYa7sJGMAANgG7Bi0BGMAANgG7Bi2tpl3MlQ7AAAawCTjGEykBeBMA2wMGsAnYNWipRICLfxdrAgawCdg1aAnAAAYwgGuZgF2DFoABDGAAm4BXdlxKAK7iTSyAAWwCtgksJW/5STuYgAEMYBOwa9ASgAEMYBPwBl4mCcAV3MgIYACbgF2DlgCcIwAD2AScqdEarIo7Lz6DFoyeH8f4/XyCm4ABbAK2CSwVCPD8a0hNn+IEvw8ABrAJ2CawBOCgw3eYfyCAAWwCtgkspa/PdgLtUp3iv+wBA9gEbBNYAnDqAfjnf6EJGMAmYJvAUoEAz/4yuXSn+ABgAJuAbQJLAE6/7rcABrAJ2CawBODUW8A/v8cGMIBNwDaBpfIAnnsF6W0V+piAAWwCtgks5SnbFs4ngAEMYBOwTWDVWwNgAAPYBGwTWCoR4LZ4gO0BA9gEbBNYArAJGMAArmoCLv8PmkoABjCATcAldrMOq9L2AAYwgE3AKz04JQDbAwYwgE3AsXIXlgBsAgYwgE3AORotxAIwgAEMYBNw+loLsQA8rwHAAAawCXhBNwux6mwHYHvAADYBr/XolABsAgYwgE3AsXIXlgAMYAAD2ASco9FKLAAnPXcADGAAm4CXPqESgO0BAxjAJmAASwA2AQPYBLyNF0sCMIABDGATcKzchSUAAxjAADYB58hKLADbAwYwgE3AGRotxQJwyveuJmAAA9gEvPgZlcrtAmAAA9gEnLmbpVgm4JS3TwAYwAA2AU/bJZJMwBsF2B4wgE3AeXMbtKrsE8AmYACbgAEsARjAAAZwfROw26AFYAADGMAm4By11mIB2B4wgAFsAv593XcAlgBsAgawCTjVKXXv3o/Xb/rHP8bmeuz6tC+XBGAAAxjANU7A9/fT//3S5qNLfY5KAAYwgAFc1wTcnX77qz5CT8FugxaA7QEDGMAm4J/4/atD4F9lLRaATcAABrAJ+Ed+ww/Bo8VYAAYwgAFsAv7rzP71w0PZBxW4tRgLwAAOtHY0xXAEYBPwb3r/eSRtegBLAF7hHvAf6+LoBmAT8Cun9WnKgwk5A/sckgBsAg62Hver4qgFMIBf2P2duCO7A7AE4BUC/LkqjkYAA3hyvyY/nEuw18vnkARgAAdbj1fl2rNnAMAAnnH5+d/nTg9gCcCr2wNe1TXoFsAAnnpGD688nnBHz2g1FoBNwKHW4xXB9pVmCQXwBgC+vwjhOdQLNliNBWAAB1uPd2uZgZ/fUgNgAE89VmJehAawAAzggOtxc33WwtHhfp3amOoiIoCLB/jr9QvBoe7Daq3GArA94FRLxznug8qwiwfg0gGec1CFGoFvVmMB2AQMYABXCvCM+TfcmeyDwAIwgAEM4EoBfvX+q1DnT+ADWgIwgAEM4KIAnulvqBuhfRBYALYHDGAA1wnwV94jCMACsAkYwAAGcNoH9fNDkwAMYAADGMDhn1AAC8AABjCAAfx6YW7DGizHArA9YAADGMDpr0G3lmMB2AQMYAADOP01aAALwAAGMIABnOEa9M1yLAADGMAABnD6a9C+CksAtgcMYAAD+MXeEpymEoBNwAAGMIAjHES+iUMAfjkAAxjAtQMc4ho0gAVgAAMYwABOfDQDWAAOviKUAbA9YAADeOERFeKDSKP1WACuDmATMIABvPCI2gNYAjCAAQzgDEdUgE3gwXosAAMYwAAGcHqAW+uxAGwPGMAABvCLvQFYArAJGMAATn9E7QAspWdwADCAAVw9wAG+DvpmPVZlXQAMYAADePkR1cd8ySQAbxRge8AABvDiI+oc/TyVttYOwCZgAAN4+RH1CWAp+QTcZjtfAQxgAK8G4OXv5X0XpUzAAAYwgAGc4TgCsABcH8D2gAEM4MVHVANgCcAmYAADOMMR1QNYAjCAAQzg9EfUefFrNlqQBWAAAxjAAE5/RgNYALYHDGAAAzjDWjJYkAXg17qZgAEMYAADWEp/0sz9/jgAAxjAWwJ4+YHUWpBVV3sAAxjAAA5xRAFYArA9YAADOMMR1QNYSrz6zj1tTcAABvCmAD4DWAIwgAEMYABLAAYwgAFcBcCfEV8zaYvl+wJXe8AABvCmAN4BWAKwCRjAAAawBGAAbx3g90OEjj2ASwN4H/lElQAMYAD/b0OUI/MM4NIAbgAsvdZy3ooH2B7wGgE2AQNY2nr9Yt5GEzCATcAAXv7g/EFgARjAADYBAxjAUgEAz1x/AQxgEzCAASwAVw2wPWATMIBDHFFnAEuJAZ65GpmAAQzgbQH8CWAJwAAGMIDTH1FvAJaSXjUCMIABDOAwT6z1WACuDWB7wAAG8CoAHi3IAnCwlc4EDGAAAxjAUiwHAQxgAAM4xKEEYAE4zXkLYAADGMAAFoAznLe71QBsDxjAAA5xRDXrPJSk1fa2mLeZnx1YD8AmYAADGMBS+na5AN4DGMAA3hTAix8dgAXgNAAH+AoQAAMYwACWKgZ4/X8OyR4wgAEMYAnAGa5Bm4ABDOASAG4tyAJwogX4AGAAAxjAAFa17fMBnExgAAMYwCmOqDOApcQAzz9rrqdJ//3J3r0eNo1tARiNHwXEQQUEowI8iQtIQP3XdIG5f2YmQGLtrfNaXwFgOdZZPg/bUy7A9oABDGAAS9t3KAnwO7vmAmwGDGAAA1hqEuCX7Mc4AxjAAG4A4CuApQ+1HuBv2Q8RwAAGMICl/ppWA/w1+yEmA2wPGMAABrDUJMCv2Q/RDBjAAAawBGAAAxjAAE55ZgEsAAMYwAAGMICl9ObVAKf/jLY9YAADGMASgPsD2AwYwAAGsFSg63qAH5MfIoABDGAASwAucNsAGMAABrDUX7vhAbYHDGAAA1hqE+Dsr8IyAwYwgAEsATjTAgADGMAAlgD8/rI/CAxgAAMYwFJ/7YcH2B4wgAEMYKlAAb9HuJgBAxjAAAawVADgC4ABDGAAA1j6YAEAP+Y+QgADGMAAljpsWg9w8n1jDxjAAG4B4D2AJQCbAQMYwGbA0ggAJ38TB4ABDGAzYKnD5vUAf637EQIYwAAGsNQnwK91P0J7wAAGMIClCruODrAZMIABDGCpRAHfRZn8QWAAAxjAAJYAXODGATCAAewUtATg/gC2BwxgAJsBSyUK+DWG5cUMGMAANgMGsLQ9wLmfQwIwgAFsBix1WMSvMeQegwYwgAFsBiz12DQ4wPaAAQxgM2CpVYBzP4dkBgxgAJsBSwAucOcAGMAABrDUYzOAAQxgAANY2r5rAMCpv4dkDxjAAAawBOBkDsyAAQxgAEujFPFVWKnHoAEMYAADWAJwgWPQAAYwgEcA+NForOGK+Cqs1FvHHjCAAWwGLAG4wK1jBgxgAANY6rGI76JMPQYNYAAD2BK01GVTAMCZp7AADGAAA1gCcH8A2wMGMIABLJVpDgA48xi0GTCAAQxgqcuuEQDf5z0+AAMYwACWAPyrXgAMYAADGMDSprdNLAibA2wPGMAABrDUMMCJp7DMgAEM4BEAvhiMNV4h38SRePMAGMAAbgHgI4CljxbyTRyJp7AADGAAtwDwFcDS5qNC8ikse8AABjCAJQAXOIVlBgxgAI8AsKFYIzZHAPxa7cMDMIABDGCpY4DzPkMAYAADeACAXw3FGrFjCMD3WQ/PHjCAAdwCwDOApQ8X8kHgvF8kNAMGMIABLAG4wO0DYAADGMBSn8V8E0fahwgADGAAA1jqtBiA75MenT1gAAO4BYAnAEvbDwu5m8BmwAAGMIAlABe4fwAMYAAPAPBXI7GGbA4BOGsTGMAABjCApU47Vr0JbA8YwAAGsNRpMZ9DytoENgMGMIABLHVa0OeQkjaBAQxgAA8A8DcjsYYs5heBs8ZiAAMYwA0AfFgALBUYF1I3ge0BAxjAAJYAXGATxwwYwAAeAOAXA7HGbI4BOOeDSAAGMIAbAHhf7nmVWu4aBHDKLQRgAAMYwFKvBX0OKWcXxx4wgAEMYAnAvy/lg0hmwAAGcAMA7wAs3VLU55BS7iEAAxjAAJa6LQrgjDVoAAMYwACWum0KAjhjDdoeMIABPADAj8ZhDdocBHDGu1gzYAADuAGAjwCWitw7mWvQAAYwgBsA+Jp4cVLPRR2DzliDBjCAAdwAwDOApTLDcOIatD1gAAN4AIANwxq1sM8hJXwftBkwgAHcAMArL+7VMKxhm8IEDl9IAjCAAQxgqd/CjkHHr0EDGMAABrDUb9cwgMPvI3vAAAYwgKV+CzsGHT8imwEDGMD1A3xYKnlJS80Vdww6/EYCMIABXD/AewBLhd6+Jh7DAjCAAQxgqePijkEvL00BbA8YwAAOeEXt8v5kUu/FHYOOPk1hBgxgAANY6ri4Y9DRn0QCMIABXD/Ax6pGDampAo9BB0+BAQxgANcP8BXAUrGBOO1esgcMYADXD/AMYOnmIgEOnQKbAQO4KoBfAJxxbQDWyE2RAkfeTAAGcFUAfyt3WT0D/GgM1sBFnsIKnQIDGMAArh/gJfHapN6LPIUVOgW2BwxgAFcP8AHAUsGROGsKbAYMYABXD/Dqp9UQrJE7hAK8fAIwgPsE+Gu5y+oYYD+GpLELPYW1vIatKAEYwACuHuAjgKWC0GURYQ8YwACuHuArgKWCa0hZ57DMgDOHKwBv+dx3DPC8VPKWUgJwoBEABjCAqwd4ArC0ouBTWGHnsAAMYADXDvDq28iPIWnwpmiBY8Zme8AArgrgpdxl1Qvw6tfRiwFYY3eNBjjmJLQZMIDrAvhS7LLqBbjkT1xIPRS9CRy0rwPg2FkYgMtdcr8AHwEslR2Lc7aBARw7CwMwgOMBnut8HUntFA9wxG1lDzhzvALwlpO1fgGeACwVvone2Ktcf1+ZAQMYwJUDvP4jFBfjrwbvuiQIvPrGAnDmlhmAQ//xUQFev31l+NXo7ZYaBe4T4LVvdl4AXAzgr8Uuq1qAS364Wuqjw1KjwPaA0w6YA3hjLLoFeAawVHrYe7vTpei93ecMOGrAAjCAAwBePXL4JkppTgF45RwYwACOBDjg03aXUpdVK8Dr1858E6W0W5IEXjNKAzgTPgBvec29ArwDsFR+NP6lwF+qBfiuUYDvK/mTjwjwfanLqhXg61LJy1lquSlL4OXBDDh2yAqaMgB4y+e+V4AnAEvrm9MAvn0Z+grgxE1gAG+JVacAl1zVl/rpuCT2cLnlIR0mAMeeBBoc4IAP272WuqxKAd4BWKphOP5tp4/vBB+e0j/gUAbgkl+ICOBSF90pwAELZxeDr3S35PbBw1hPnwM2peucAddybhTAW7756RPgkmsKUk/NSzbB712IPjx9PoX8j70CHDNmAXjDNz9/LV0CvAOwFNJxye90fv6Dic/f8Q07kN0rwDFr0ADezov1f/NEgF/L/bEWX4QlxYzH7zT4dP5yeUve5/P5dDqF/l+97gHHDFrjARzyWbtbrno/1Qzw7S+ngksKUmct2/Vd2tPDw/n88PBw+tk0TQn/Tbcz4PW/KZeYAQAADSJJREFU9AjgW3u5wamA/zcT4OXTjX+ra5nnU+qweemtbgEOWYMG8EYLthH+5gJ8q8BTJS9lqf12AN5k7NgXUQDAQWB8+LJD/E0G+DaBQ0YMAEtRMDQF8F27AEcMWwDeZNPyELOylAzwTQIXeT8jddo0GMANz4AjdoEBnGBhlr/pAN/wle277Z9Nqd+uAN4C4EPItX1a/eceEOB586c+Zv15C4A/LHDMpfkYsBT5jhbAmwC8nj8A568+hPm7AcDL6WOT0aAn07grRcpgD3iTpf7Vi9ADAhwk1bt3gfdh/m4B8Md+tmy/zT0qDdM0FsCHpgFePXQBOPvK/wq8obYA+COr61Fze9/DIf2/I4AbAviGYzOjAxz1An/X6sPhc+RreRuA378MHfUivjfsSqGrSgDeaKHhoexfuz2Adxs+80/T0iDA7/3VsnkBsGQNusE94LDBa3nv70sBOBjgPwocO/3dEOB3/XZ34NU9GnWllDvZDDgb4I8dmwFw4Dn/3wv8Ofyt7GXD2/b0h79s4NmyxaArJQxQAN5mvLx9EjwgwJF7LL/eBz48TfGv5S0B/v6q+t0sOPJsmU8hSXEkAXjzdYbXh7d/Y/n56fwFwHkAf3/iL28vz54yXsvbAvx9Fvyrd3ZPoZcHYCllddQe8FbrDK+n8z8MPjyfP//9y8q/PdM6IMDBbzD/+97ncD4lnaPYGuAfr57zf97aPUWvrfsUktTrGnSlM+CMJ/n1dHo4f+/Hjyu/c6cSwCETxS/Pl8vPdz0/3vZMaa/lAgD//bI6n59/9iXl8l6MuVKna9ADAXwDkgMCnHTMfzqdpmnK/UOWATi9e2OulD1CAThtJ/J2jgDcUp0C/GjIlTpdg650D3jLZYZXAAO40cuSrEGbATcN8G9GuBEBngFcVQ5BS92uQVcK8KbP8T2Au6CqT4D9FpLU7Ro0gAEM4JrzKSSp2zXoSveAAVwM4B2Aq+regCv1ugZd6wx4BjCAAQxgqec16FoBvgK4EMB7ADdzVZI1aAAnALwDMIAB7BC0VHaBdMw9YACXAvgOwC3doJI1aDPgaID3AC4F8ATginIIWupnltAKwAcAAxjAzmBJPa9B1wrwHYBLATwDuKIeDbZSt2vQte4BbzkPA3AfVl1Guyhp1KYxAC43A54BXAjgHYDrySFo6Y2OAM4F+ApgAAPYIWgpY2gGcDWL/ADu46XdI8Avhlqp7BLpkHvAAC4F8AHA9XRvpJV6WqhrZAa8B3AhgJs939AjwBcjrfQWTROAMwE+ABjAwwPsDJbU13vqRgDekAEA97G70iHAzmBJxddIR9wD3pABAP+zI4BryRdRSp1NFBqZAV8BXAjgHYBr6d4wK/U1TjUC8A7AhQDeA7iFS5LGbgJwIsB7ABcC+A7AleQMltT1FLjePeADgEsBPAG4jbtTGrgePolU7wx4OwYA/K9mANsClmrvCuDEIWQGcCGAjwCuo0djrFTBNuWIAF8BXAjgHYDryBAr9bdW18Qe8HYMALiPN5bdAWwLWOp7ClzxDPgA4EIA3wG4il6MsFLXU+CKAd7sFBaASz3zAE67eaQB2gEYwP0BfAVw7Rckqf0v46h4D/juCOBCAO8AXEG+hkPqfApc8wz4f+3cYXLbthYGUFPsAkRaC5BtLUC2vIAy6f7XVNtJZ9rGkSkS4AXBc2ZeO/N+1CEC4sO9AN0I4KAA3glgR8CgBN5yALcCOCiA7wSwI2BQAm85gJfa3AjgX5wEcDyLK1ReApd8BrzUqimAq8ir2gLYV8BQewlcdAXcCOCgAG4EsA40KIG3HMA7ARwUwK0ADne0tEIxMbHBAF5obyOA69hV1hXAPkKCUU71BnDsGfBCy6YArqJirCyAv1tYofYSuOwKuBHAQQHcCGBHwKAE3nIAtwI4KIBbAVzw0wD/Wq0OAjjPPv4ggGMCeI2HwFUFsI+QYKxnZ8B5AvhVAAcF8KsA1oGGdThUGsDRFXAjgIMCuBHAOtCwDo0AzrORF8BBAXwngCP5CAlucBLAWQL4JICDAvgkgHWgYR12dQZw9BnwIq0FAVxHU6emANaBhls8VxnA4RVwK4CDArgVwDrQsBYHAZyjlXYSwDEBvL4JXVEA60BDec3SDQZwI4CDAvgPAawDDWvxWmEAh58BL9EJFcB5Hl4A53orgV+iYo1N6O+lV8AL9KAFcB096HoCWAcaNtGE3hcfwI0ADgrgZwEcxFoKJRZryR2LD+BWAAcFcCuAi2xLAVU07b7+3KGAZtqrAI4J4LVN52oC+GglhQlWd2/lPncRtF/BoArgOs5UaglgHwHDNCs7NvvytmUJAZy9EBPAufofAtgVLFjQqo6Bh/MqArgRwEEB/CqAFcCwHmv6FmkYEQ8lBHArgIMCeLfdAB7CXmRXsGCyFa1ZI8KxiAo4d/kigMO6/+UG8PemxMcArlvNMfD9iIcpI4B3AjgogJvtBnDU5sNvwYI5VnIM3C/S/d2vYEgFcKEl8BAawEG9rKMVFCLXx5I22mUE8E4ABwVwaD9nf4gL4H3QsyuAYWZcrCCBv51HPUohFXDeElgAZ5wAs85IYgM45ELl3voJJRdsSZp754XW3/0KRlQAp0yulLVgbABHvMe+QYLZnivJ32ICOGsJLIBLLIHf5+gpNoAD3mMFMNSewKPzt5Qz4LzFiAAusAT++Ej9NS6Aj0lG2gkwRHioI3+LqYBzlsAC+OoUiLnRcLw9NjME8NLXOY5WTqg7gW/I34ICuBXAMQEc0815+vjRTVwAnyMeXgEMhaySJeRvQQGcsRUqgIsrgX/+kpjAAA7ZSCuAYQVN06Xyt5wz4Jw7GgF8XROVv4EBPERspO8tmpCsaVpiDTzy+98CK+B8OSCAC2vm9NP+yvME8HKv8Y17Y2BlXej+xne8pADO1lIQwF/YBeXvjT84TwAvdxFrb8WElEq7idXf+gBFBXCuWkQAf+U5aJK2YQH8bfmndwMLEnehy0rg28+YigrgXCuhAC7pNKWfPP1yBfAyCTwcrZdQbw08PE3485fVVjsJ4JAAXvAeVj/9SVMG8PfFOwAa0FBxAk/aYc8ufdIuK3kqMQFcThO6n/GkKQN4v/RbrAENOTyXcRWrO4es9Yn39TsBHBPAC10o7Of81IwBnD2B3YCGPF5KSOA+aK1P3Vh7FsAxAbzIMfD9rDOHnAGcO4E1oCGT+A+CJx3/FhnAOY6BBfAYTUD+3pabKQP4uOxZkl/BAfkSOPggeGL7OUXepU+ggwAOCeDsx8Cf7RLDAviT/1bGl9gBMOQUehDcz/iD/zHzZ5+TD2X6foIAHifvNvLTS4I3ld136QJ4WPT5HQBDXruwBJ7efk7QeBzWMJS/D+DZn0HnWVmjzgVOGafp512aJtVca1LM2+cFtx5ABW3oW3/55P8V2FtLncD7bFE35JlLp6AAzniZoZ/fgkgZwN8WbGTJX1hAxG3oeeXv/MX+zzW0E47Zoi7T2d7c+1CT92S5Eni4T9CCuNpYb9PM2xyNLPkLdRbBc8vf2Yt9nhZs2nVwyBd1+0yPH1aX50ngKzXgIdVgH9KEYtvJX1AEjzlWS/JuzykCs93uTBkE39IVTgvtP2Z2xmdtC7plt4nPqbYVTaotSuJd9JNVERbzsFgED4m+LZyRdRlPtxJWIlfzaNa9m2xfd84qzGfeuX1YdJ62qQb7pml8fUokfIWd/0KVfegE3ee5WddlXV1SjeOQrdgcynz4YyEDf+328+17jS8Huxn/N9kvtfmTv7C0XbdA/CZ9s18eu9v1j+e845imn/9VPdg+dBP1OZ//ZeqfKsGuKOFByvD1N+q/9IyGvw7Dh4/HOXTd8PaPEYO9G/0Xt1Qfy/e/EOAlcwR32zhYSlCJDL3ZGDLw48rfD5ef2vOlbe/O7/87n9u7j3+dgyLskmIEzD2oL4K77dzrmFuJZC1SDXz2b+Qi3+DDlp8eVm7XHcRvaC029EfTcPr0nd98WPfup523CenOJhGs9w2ucVFbsJcw9BdTcI6Zl4ErmKmX6S+w8hfWmx6/2VTnvvZUzyAOms+hG8i+jgDaPdgnw6pXsS5V8bvdTfWtEdzdWwAjI7iiY5IJQyB+oSCXx9nHwW/pu+2X+oZ9TKf3nHDcb28/1JY/7WMnfmHlGTy9EO62nr4/y+AxGbzlPkG2cT9s/ZjkZfT2b6OnRFD8RnpSCA/quf8WI93VsZK+eQJo5MyteLKOyOBB+kLZlfDbezy+l9o9Ct9fQ/jl8W0MD/9f+7QJgns4Q/WztX17eQ+/fVfNP1hLLfz+6w8P16K3e/Q+fzGIT4//eLoYq4X2Pp/O22FDW8Uf7253+DEKP35dZm+jDGtbzc6Xy8tbejz8+3cRP7z9Hxdv8w1Eb8C8fd/79H3fPfQbna+Xtm3ff3fm+6/MBAAAAAAAAAAAAAAAAAAAAAAAAAAAAAAAAAAAAAAAAAAAAAAAAAAAAAAAAAAAAAAAAAAAAAAAAAAAACjN31LSrSNzfm3jAAAAAElFTkSuQmCC;" vertex="1" parent="1">
          <mxGeometry x="296.67" y="90" width="106.67" height="60" as="geometry" />
        </mxCell>
        <mxCell id="vubgyZdkI0JmJ5_AQgjt-10" value="" style="shape=image;verticalLabelPosition=bottom;labelBackgroundColor=default;verticalAlign=top;aspect=fixed;imageAspect=0;image=data:image/svg+xml,PHN2ZyB4bWxucz0iaHR0cDovL3d3dy53My5vcmcvMjAwMC9zdmciIHJvbGU9ImltZyIgdmlld0JveD0iMCAwIDI0IDI0IiBoZWlnaHQ9IjgwMHB4IiB3aWR0aD0iODAwcHgiIGZpbGw9IiMwMDAwMDAiPjx0aXRsZT5HaXRIdWIgQWN0aW9ucyBpY29uPC90aXRsZT48cGF0aCBkPSJNMTAuOTg0IDEzLjgzNmEuNS41IDAgMCAxLS4zNTMtLjE0NmwtLjc0NS0uNzQzYS41LjUgMCAxIDEgLjcwNi0uNzA4bC4zOTIuMzkxIDEuMTgxLTEuMThhLjUuNSAwIDAgMSAuNzA4LjcwN2wtMS41MzUgMS41MzNhLjUwNC41MDQgMCAwIDEtLjM1NC4xNDZ6bTkuMzUzLS4xNDdsMS41MzQtMS41MzJhLjUuNSAwIDAgMC0uNzA3LS43MDdsLTEuMTgxIDEuMTgtLjM5Mi0uMzkxYS41LjUgMCAxIDAtLjcwNi43MDhsLjc0Ni43NDNhLjQ5Ny40OTcgMCAwIDAgLjcwNi0uMDAxek00LjUyNyA3LjQ1MmwyLjU1Ny0xLjU4NUExIDEgMCAwIDAgNy4wOSA0LjE3TDQuNTMzIDIuNTZBMSAxIDAgMCAwIDMgMy40MDZ2My4xOTZhMS4wMDEgMS4wMDEgMCAwIDAgMS41MjcuODV6bTIuMDMtMi40MzZMNCA2LjYwMlYzLjQwNmwyLjU1NyAxLjYxek0yNCAxMi41YzAgMS45My0xLjU3IDMuNS0zLjUgMy41YTMuNTAzIDMuNTAzIDAgMCAxLTMuNDYtM2gtMi4wOGEzLjUwMyAzLjUwMyAwIDAgMS0zLjQ2IDMgMy41MDIgMy41MDIgMCAwIDEtMy40Ni0zaC0uNTU4Yy0uOTcyIDAtMS44NS0uMzk5LTIuNDgyLTEuMDQyVjE3YzAgMS42NTQgMS4zNDYgMyAzIDNoLjA0Yy4yNDQtMS42OTMgMS43LTMgMy40Ni0zIDEuOTMgMCAzLjUgMS41NyAzLjUgMy41UzEzLjQzIDI0IDExLjUgMjRhMy41MDIgMy41MDIgMCAwIDEtMy40Ni0zSDhjLTIuMjA2IDAtNC0xLjc5NC00LTRWOS44OTlBNS4wMDggNS4wMDggMCAwIDEgMCA1YzAtMi43NTcgMi4yNDMtNSA1LTVzNSAyLjI0MyA1IDVhNS4wMDUgNS4wMDUgMCAwIDEtNC45NTIgNC45OThBMi40ODIgMi40ODIgMCAwIDAgNy40ODIgMTJoLjU1OGMuMjQ0LTEuNjkzIDEuNy0zIDMuNDYtM2EzLjUwMiAzLjUwMiAwIDAgMSAzLjQ2IDNoMi4wOGEzLjUwMyAzLjUwMyAwIDAgMSAzLjQ2LTNjMS45MyAwIDMuNSAxLjU3IDMuNSAzLjV6bS0xNSA4YzAgMS4zNzggMS4xMjIgMi41IDIuNSAyLjVzMi41LTEuMTIyIDIuNS0yLjUtMS4xMjItMi41LTIuNS0yLjVTOSAxOS4xMjIgOSAyMC41ek01IDljMi4yMDYgMCA0LTEuNzk0IDQtNFM3LjIwNiAxIDUgMSAxIDIuNzk0IDEgNXMxLjc5NCA0IDQgNHptOSAzLjVjMC0xLjM3OC0xLjEyMi0yLjUtMi41LTIuNVM5IDExLjEyMiA5IDEyLjVzMS4xMjIgMi41IDIuNSAyLjUgMi41LTEuMTIyIDIuNS0yLjV6bTkgMGMwLTEuMzc4LTEuMTIyLTIuNS0yLjUtMi41UzE4IDExLjEyMiAxOCAxMi41czEuMTIyIDIuNSAyLjUgMi41IDIuNS0xLjEyMiAyLjUtMi41em0tMTMgOGEuNS41IDAgMSAwIDEgMCAuNS41IDAgMCAwLTEgMHptMiAwYS41LjUgMCAxIDAgMSAwIC41LjUgMCAwIDAtMSAwem0xMiAwYzAgMS45My0xLjU3IDMuNS0zLjUgMy41YTMuNTAzIDMuNTAzIDAgMCAxLTMuNDYtMy4wMDJjLS4wMDcuMDAxLS4wMTMuMDA1LS4wMjEuMDA1bC0uNTA2LjAxN2gtLjAxN2EuNS41IDAgMCAxLS4wMTYtLjk5OWwuNTA2LS4wMTdjLjAxOC0uMDAyLjAzNS4wMDYuMDUyLjAwN0EzLjUwMyAzLjUwMyAwIDAgMSAyMC41IDE3YzEuOTMgMCAzLjUgMS41NyAzLjUgMy41em0tMSAwYzAtMS4zNzgtMS4xMjItMi41LTIuNS0yLjVTMTggMTkuMTIyIDE4IDIwLjVzMS4xMjIgMi41IDIuNSAyLjUgMi41LTEuMTIyIDIuNS0yLjV6Ii8+PC9zdmc+;" vertex="1" parent="1">
          <mxGeometry x="320" y="200" width="60" height="60" as="geometry" />
        </mxCell>
        <mxCell id="vubgyZdkI0JmJ5_AQgjt-11" value="" style="endArrow=classic;html=1;rounded=0;exitX=1;exitY=0.5;exitDx=0;exitDy=0;fontSize=13;strokeWidth=2;edgeStyle=orthogonalEdgeStyle;curved=1;" edge="1" parent="1" source="vubgyZdkI0JmJ5_AQgjt-2" target="vubgyZdkI0JmJ5_AQgjt-9">
          <mxGeometry width="50" height="50" relative="1" as="geometry">
            <mxPoint x="270" y="400" as="sourcePoint" />
            <mxPoint x="320" y="350" as="targetPoint" />
          </mxGeometry>
        </mxCell>
        <mxCell id="vubgyZdkI0JmJ5_AQgjt-12" value="" style="endArrow=classic;html=1;rounded=0;exitX=0.5;exitY=1;exitDx=0;exitDy=0;fontSize=13;strokeWidth=2;entryX=0.5;entryY=0;entryDx=0;entryDy=0;" edge="1" parent="1" source="vubgyZdkI0JmJ5_AQgjt-9" target="vubgyZdkI0JmJ5_AQgjt-10">
          <mxGeometry width="50" height="50" relative="1" as="geometry">
            <mxPoint x="330" y="360" as="sourcePoint" />
            <mxPoint x="447" y="360" as="targetPoint" />
          </mxGeometry>
        </mxCell>
        <mxCell id="vubgyZdkI0JmJ5_AQgjt-13" value="" style="shape=image;verticalLabelPosition=bottom;labelBackgroundColor=default;verticalAlign=top;aspect=fixed;imageAspect=0;image=data:image/svg+xml,PHN2ZyB4bWxucz0iaHR0cDovL3d3dy53My5vcmcvMjAwMC9zdmciIHZpZXdCb3g9IjAgMCAxOCAxOCI+PGRlZnM+PGxpbmVhckdyYWRpZW50IGdyYWRpZW50VW5pdHM9InVzZXJTcGFjZU9uVXNlIiB5Mj0iNy41MyIgeDI9IjQuMzciIHkxPSIxMS40OCIgeDE9IjQuNCIgaWQ9ImIiPjxzdG9wIHN0b3AtY29sb3I9IiNjY2MiIG9mZnNldD0iMCIvPjxzdG9wIHN0b3AtY29sb3I9IiNmY2ZjZmMiIG9mZnNldD0iMSIvPjwvbGluZWFyR3JhZGllbnQ+PGxpbmVhckdyYWRpZW50IGdyYWRpZW50VW5pdHM9InVzZXJTcGFjZU9uVXNlIiB5Mj0iMTEuOSIgeDI9IjEwLjEzIiB5MT0iMTUuNDUiIHgxPSIxMC4xMyIgaWQ9ImMiPjxzdG9wIHN0b3AtY29sb3I9IiNjY2MiIG9mZnNldD0iMCIvPjxzdG9wIHN0b3AtY29sb3I9IiNmY2ZjZmMiIG9mZnNldD0iMSIvPjwvbGluZWFyR3JhZGllbnQ+PGxpbmVhckdyYWRpZW50IGdyYWRpZW50VW5pdHM9InVzZXJTcGFjZU9uVXNlIiB5Mj0iNy4zOCIgeDI9IjE0LjE4IiB5MT0iMTEuMTUiIHgxPSIxNC4xOCIgaWQ9ImQiPjxzdG9wIHN0b3AtY29sb3I9IiNjY2MiIG9mZnNldD0iMCIvPjxzdG9wIHN0b3AtY29sb3I9IiNmY2ZjZmMiIG9mZnNldD0iMSIvPjwvbGluZWFyR3JhZGllbnQ+PHJhZGlhbEdyYWRpZW50IGdyYWRpZW50VW5pdHM9InVzZXJTcGFjZU9uVXNlIiBncmFkaWVudFRyYW5zZm9ybT0ibWF0cml4KC4xNSAwIDAgLjE1IC0yMDA1LjMzIC01MTguODMpIiByPSI1Ni42NyIgY3k9IjM1MTguODYiIGN4PSIxMzQyOC44MSIgaWQ9ImEiPjxzdG9wIHN0b3AtY29sb3I9IiM1ZWEwZWYiIG9mZnNldD0iLjE4Ii8+PHN0b3Agc3RvcC1jb2xvcj0iIzAwNzhkNCIgb2Zmc2V0PSIxIi8+PC9yYWRpYWxHcmFkaWVudD48L2RlZnM+PHBhdGggZmlsbD0idXJsKCNhKSIgZD0iTTE0LjIxIDE1LjcyQTguNSA4LjUgMCAwMTMuNzkgMi4yOGwuMDktLjA2YTguNSA4LjUgMCAwMTEwLjMzIDEzLjUiLz48cGF0aCBvcGFjaXR5PSIuNiIgZmlsbD0iI2ZmZiIgZD0iTTYuNjkgNy4yM2ExMyAxMyAwIDAxOC45MS0zLjU4IDguNDcgOC40NyAwIDAwLTEuNDktMS40NCAxNC4zNCAxNC4zNCAwIDAwLTQuNjkgMS4xIDEyLjU0IDEyLjU0IDAgMDAtNC4wOCAyLjgyIDIuNzYgMi43NiAwIDAxMS4zNSAxLjF6TTIuNDggMTAuNjVhMTcuODYgMTcuODYgMCAwMC0uODMgMi42MiA3LjgyIDcuODIgMCAwMC42Mi45MmMuMTguMjMuMzUuNDQuNTUuNjVhMTcuOTQgMTcuOTQgMCAwMTEuMDgtMy40NyAyLjc2IDIuNzYgMCAwMS0xLjQyLS43MnoiLz48cGF0aCBvcGFjaXR5PSIuNTUiIGZpbGw9IiNmMmYyZjIiIGQ9Ik0zLjQ2IDYuMTFhMTIgMTIgMCAwMS0uNjktMi45NCA4LjE1IDguMTUgMCAwMC0xLjEgMS40NUExMi42OSAxMi42OSAwIDAwMi4yNCA3YTIuNjkgMi42OSAwIDAxMS4yMi0uODl6Ii8+PGNpcmNsZSBmaWxsPSJ1cmwoI2IpIiByPSIyLjczIiBjeT0iOC42OCIgY3g9IjQuMzgiLz48cGF0aCBvcGFjaXR5PSIuNTUiIGZpbGw9IiNmMmYyZjIiIGQ9Ik04LjM2IDEzLjY3YTEuNzcgMS43NyAwIDAxLjU0LTEuMjcgMTEuODggMTEuODggMCAwMS0yLjUzLTEuODYgMi43NCAyLjc0IDAgMDEtMS40OS44MyAxMy4xIDEzLjEgMCAwMDEuNDUgMS4yOCAxMi4xMiAxMi4xMiAwIDAwMi4wNSAxLjI1IDEuNzkgMS43OSAwIDAxLS4wMi0uMjN6TTE0LjY2IDEzLjg4YTEyIDEyIDAgMDEtMi43Ni0uMzIuNDEuNDEgMCAwMTAgLjExIDEuNzUgMS43NSAwIDAxLS41MSAxLjI0IDEzLjY5IDEzLjY5IDAgMDAzLjQyLjI0QTguMjEgOC4yMSAwIDAwMTYgMTMuODFhMTEuNSAxMS41IDAgMDEtMS4zNC4wN3oiLz48Y2lyY2xlIGZpbGw9InVybCgjYykiIHI9IjEuNzgiIGN5PSIxMy42NyIgY3g9IjEwLjEzIi8+PHBhdGggb3BhY2l0eT0iLjciIGZpbGw9IiNmMmYyZjIiIGQ9Ik0xMi4zMiA4LjkzYTEuODMgMS44MyAwIDAxLjYxLTEgMjUuNSAyNS41IDAgMDEtNC40Ni00LjE0IDE2LjkxIDE2LjkxIDAgMDEtMi0yLjkyIDcuNjQgNy42NCAwIDAwLTEuMDkuNDIgMTguMTQgMTguMTQgMCAwMDIuMTUgMy4xOCAyNi40NCAyNi40NCAwIDAwNC43OSA0LjQ2eiIvPjxjaXJjbGUgZmlsbD0idXJsKCNkKSIgcj0iMS44OSIgY3k9IjkuMjciIGN4PSIxNC4xOCIvPjxwYXRoIG9wYWNpdHk9Ii41NSIgZmlsbD0iI2YyZjJmMiIgZD0iTTE3LjM1IDEwLjU0bC0uMzUtLjE3LS4zLS4xNmgtLjA2bC0uMjYtLjIxaC0uMDdMMTYgOS44YTEuNzYgMS43NiAwIDAxLS42NC45MmMuMTIuMDguMjUuMTUuMzguMjJsLjA4LjA1LjM1LjE5Ljg2LjQ1YTguNjMgOC42MyAwIDAwLjI5LTEuMTF6Ii8+PGNpcmNsZSBmaWxsPSJ1cmwoI2IpIiByPSIyLjczIiBjeT0iOC42OCIgY3g9IjQuMzgiLz48Y2lyY2xlIGZpbGw9InVybCgjYykiIHI9IjEuNzgiIGN5PSIxMy42NyIgY3g9IjEwLjEzIi8+PC9zdmc+;" vertex="1" parent="1">
          <mxGeometry x="505" y="135" width="70" height="70" as="geometry" />
        </mxCell>
        <mxCell id="vubgyZdkI0JmJ5_AQgjt-14" value="" style="endArrow=classic;html=1;rounded=0;exitX=1;exitY=0.5;exitDx=0;exitDy=0;fontSize=13;strokeWidth=2;edgeStyle=orthogonalEdgeStyle;curved=1;entryX=0;entryY=0.5;entryDx=0;entryDy=0;" edge="1" parent="1" source="vubgyZdkI0JmJ5_AQgjt-10" target="vubgyZdkI0JmJ5_AQgjt-13">
          <mxGeometry width="50" height="50" relative="1" as="geometry">
            <mxPoint x="500" y="230" as="sourcePoint" />
            <mxPoint x="617" y="180" as="targetPoint" />
          </mxGeometry>
        </mxCell>
        <mxCell id="vubgyZdkI0JmJ5_AQgjt-15" value="" style="shape=image;verticalLabelPosition=bottom;labelBackgroundColor=default;verticalAlign=top;aspect=fixed;imageAspect=0;image=data:image/svg+xml,PHN2ZyB4bWxucz0iaHR0cDovL3d3dy53My5vcmcvMjAwMC9zdmciIHZpZXdCb3g9IjAgMCAxOCAxOCI+PGRlZnM+PGxpbmVhckdyYWRpZW50IGdyYWRpZW50VW5pdHM9InVzZXJTcGFjZU9uVXNlIiBncmFkaWVudFRyYW5zZm9ybT0icm90YXRlKC0uMDEgLTI4NjQuNzE5IC04MDIuMzkpIiB5Mj0iMTAuNjciIHgyPSIxNS4yNyIgeTE9IjEwLjY3IiB4MT0iMi40NCIgaWQ9ImEiPjxzdG9wIHN0b3AtY29sb3I9IiMwMDViYTEiIG9mZnNldD0iMCIvPjxzdG9wIHN0b3AtY29sb3I9IiMwMDYwYTkiIG9mZnNldD0iLjA3Ii8+PHN0b3Agc3RvcC1jb2xvcj0iIzAwNzFjOCIgb2Zmc2V0PSIuMzYiLz48c3RvcCBzdG9wLWNvbG9yPSIjMDA3OGQ0IiBvZmZzZXQ9Ii41MiIvPjxzdG9wIHN0b3AtY29sb3I9IiMwMDc0Y2QiIG9mZnNldD0iLjY0Ii8+PHN0b3Agc3RvcC1jb2xvcj0iIzAwNmFiYiIgb2Zmc2V0PSIuODIiLz48c3RvcCBzdG9wLWNvbG9yPSIjMDA1YmExIiBvZmZzZXQ9IjEiLz48L2xpbmVhckdyYWRpZW50PjwvZGVmcz48cGF0aCBmaWxsPSJ1cmwoI2EpIiBkPSJNOSA1LjE0Yy0zLjU0IDAtNi40MS0xLTYuNDEtMi4zMnYxMi4zNmMwIDEuMjcgMi44MiAyLjMgNi4zMiAyLjMySDljMy41NCAwIDYuNDEtMSA2LjQxLTIuMzJWMi44MmMwIDEuMjgtMi44NyAyLjMyLTYuNDEgMi4zMnoiLz48cGF0aCBmaWxsPSIjZThlOGU4IiBkPSJNMTUuNDEgMi44MmMwIDEuMjgtMi44NyAyLjMyLTYuNDEgMi4zMnMtNi40MS0xLTYuNDEtMi4zMlM1LjQ2LjUgOSAuNXM2LjQxIDEgNi40MSAyLjMyIi8+PHBhdGggZmlsbD0iIzUwZTZmZiIgZD0iTTEzLjkxIDIuNjNjMCAuODItMi4yIDEuNDgtNC45MSAxLjQ4cy00LjkyLS42Ni00LjkyLTEuNDdTNi4yOCAxLjE2IDkgMS4xNnM0LjkxLjY2IDQuOTEgMS40NyIvPjxwYXRoIGZpbGw9IiMxOThhYjMiIGQ9Ik05IDNhMTEuNjUgMTEuNjUgMCAwMC0zLjkuNTcgMTEuNTMgMTEuNTMgMCAwMDMuOS41NCAxMS40NyAxMS40NyAwIDAwMy44OS0uNThBMTEuOTMgMTEuOTMgMCAwMDkgM3oiLz48cGF0aCBmaWxsPSIjZjJmMmYyIiBkPSJNMTIgOXYuNDJhNS4xMiA1LjEyIDAgMDAtLjA4LjYzYzAgLjEyIDAgLjMuMDUuNDZzMCAuMjcgMCAuMzZhMS42OCAxLjY4IDAgMDEtLjI1Ljg2LjQzLjQzIDAgMDAwIC4wN2wuMS4xMmExMC41NSAxMC41NSAwIDAwMS4wNi0yLjM4Yy4yOC0uOTUuMzEtMS42My4wOS0xLjkyYTIuNTggMi41OCAwIDAwLTIuNjgtLjg2IDMuMjkgMy4yOSAwIDAxLjkxLjY3QTIuMjggMi4yOCAwIDAxMTIgOXptLS4zMS4wOGExLjE1IDEuMTUgMCAwMC0uNzkuMDljLS4yOS4xOC0uMi41NSAwIDFhNy43NyA3Ljc3IDAgMDAuMzUuODVsLjA5LjE2Yy4wNS4wOC4wOC4xNS4xMS4ybC4wOC4xM2ExLjI4IDEuMjggMCAwMC4xOC0uNjUgMi44NiAyLjg2IDAgMDAwLS4zM2MwLS4xNyAwLS4zNi0uMDUtLjQ5YTYuMSA2LjEgMCAwMS4wOC0uNjkuNzczLjc3MyAwIDAxLS4wMS0uM3ptLS4zLjQxYS40LjQgMCAwMS0uMTguMS4zMy4zMyAwIDAxLS4xNCAwQS4yMy4yMyAwIDAxMTEgOS40YzAtLjA3LjExLS4xMy4yNC0uMTVoLjE5cy4wOSAwIC4wOS4wOGEuMi4yIDAgMDEtLjA5LjEzem0tNC42OS44OXYtLjE3YTEgMSAwIDAwMC0uMTcgNS41NSA1LjU1IDAgMDEwLTEgNS4yMiA1LjIyIDAgMDEuMy0xLjFBMi40MSAyLjQxIDAgMDE3LjU4IDdhNC43OCA0Ljc4IDAgMDAtMS4zNS0uMiAxLjg3IDEuODcgMCAwMC0xLjEuMyAyIDIgMCAwMC0uNjMgMS44MiAxMi4yNyAxMi4yNyAwIDAwLjUgMi4yNGMuMzQgMS4xNC43MyAxLjg0IDEuMDcgMS45NS4xNS4wNS4zMSAwIC40Ny0uMjEuMjgtLjM0LjU0LS42My42OS0uOGExLjg4IDEuODggMCAwMS0uNDktMS43NXptLjI2LjRhMi4xOCAyLjE4IDAgMDAuMDYuNTYgMS41IDEuNSAwIDAwLjI2LjQ0IDEuMDcgMS4wNyAwIDAwLjM1LjI1IDEuMDkgMS4wOSAwIDAwLjM5LjA4YzAtLjE3LjE0LS4zOC4yMy0uNmE0LjM1IDQuMzUgMCAwMC4yMS0uNTkgNi42MSA2LjYxIDAgMDAwLTEuMTFjMC0uMDkgMC0uMTktLjA2LS4zYS40NS40NSAwIDAwLS4xMi0uMjcuNjYuNjYgMCAwMC0uMjgtLjE2aC0uMmExLjU2IDEuNTYgMCAwMC0uNDguMTQgMiAyIDAgMDAtLjMyLjE5di43MmEuODYuODYgMCAwMTAgLjE1di4zOXptLjY2LTEuMzRhLjQ2LjQ2IDAgMDEuMjggMCAuNi42IDAgMDEuMTkuMDZjLjA5IDAgLjEuMTEuMDkuMTRhLjM3LjM3IDAgMDEtLjEyLjEzLjMuMyAwIDAxLS4wNi0uMDQuMzQuMzQgMCAwMS0uMjgtLjI4em0uNzQgM2EuMjMuMjMgMCAwMC0uMTMuMDZsLS4xNC4xN2MtLjE3LjIxLS4yNC4yOC0uNzMuMzhhLjUyLjUyIDAgMDAtLjI2LjEuNTguNTggMCAwMC4yNC4xMSAxLjE4IDEuMTggMCAwMC43MiAwIDEuNyAxLjcgMCAwMC4zOS0uMjYuNjEuNjEgMCAwMC4yLS4zMS4zNi4zNiAwIDAwLS4xLS4yOC4xNS4xNSAwIDAwLS4xNS0uMDJ6bTQuNjEgMGExLjYzIDEuNjMgMCAwMS0xLjEzIDAgLjIyLjIyIDAgMDAtLjE0IDAgLjMuMyAwIDAwLS4xNy4xNCAxLjA5IDEuMDkgMCAwMDAgLjMxIDEuOCAxLjggMCAwMDEuMS0uMSAxLjM2IDEuMzYgMCAwMC40OC0uMzR6bS0yLjQtMi4xNGMtLjE0LS40MS0uMzQtMSAuMTgtMS4zNmExLjM1IDEuMzUgMCAwMS44OS0uMTVBMy4xOCAzLjE4IDAgMDAxMSA3LjY0bC0uMS0uMS0uMDYtLjA2YS4zNC4zNCAwIDAwLS4wNi0uMDYgMi4zNCAyLjM0IDAgMDAtLjY3LS40MkEyLjYzIDIuNjMgMCAwMDkgNi43OGExLjUyIDEuNTIgMCAwMC0uNy4xMUExLjc3IDEuNzcgMCAwMDggN2EyLjEgMi4xIDAgMDAtLjc0IDEgNS44NCA1Ljg0IDAgMDAtLjIxIDEgMS42NiAxLjY2IDAgMDExLS4yMy44NC44NCAwIDAxLjc3LjkxIDcuMjYgNy4yNiAwIDAxMCAxLjI3IDMuODcgMy44NyAwIDAxLS4yMy42M2MtLjA2LjE3LS4xNC4zNS0uMTguNDlhLjUuNSAwIDAxLjM4LjE0LjY2LjY2IDAgMDEuMTkuNTNIOXYuMjRhNi41NSA2LjU1IDAgMDAuMjQgMi40NC41NC41NCAwIDAwLjI0LjIxLjYuNiAwIDAwLjMxLjEgMS4zIDEuMyAwIDAwMS0uMzQgMS4wNSAxLjA1IDAgMDAuMjktLjY2Yy4wNy0uNDUuMjItMS43LjI0LTJhLjcyLjcyIDAgMDEuMDktLjQ0LjYzLjYzIDAgMDEuMjctLjI0IDUuMzYgNS4zNiAwIDAxLTEuMDctMS44MXoiLz48L3N2Zz4=;" vertex="1" parent="1">
          <mxGeometry x="620" y="131.25" width="77.5" height="77.5" as="geometry" />
        </mxCell>
        <mxCell id="vubgyZdkI0JmJ5_AQgjt-16" value="" style="endArrow=classic;html=1;rounded=0;exitX=1;exitY=0.5;exitDx=0;exitDy=0;dashed=1;" edge="1" parent="1" source="vubgyZdkI0JmJ5_AQgjt-13" target="vubgyZdkI0JmJ5_AQgjt-15">
          <mxGeometry width="50" height="50" relative="1" as="geometry">
            <mxPoint x="510" y="430" as="sourcePoint" />
            <mxPoint x="560" y="380" as="targetPoint" />
          </mxGeometry>
        </mxCell>
      </root>
    </mxGraphModel>
  </diagram>
</mxfile>
